<svg width="24" height="24" viewBox="0 0 24 24" fill="none" xmlns="http://www.w3.org/2000/svg">
<g clip-path="url(#clip0_1_76)">
<path d="M12.0001 23C13.9892 23 15.8969 22.2098 17.3034 20.8033C18.7099 19.3968 19.5001 17.4891 19.5001 15.5C19.5001 14.634 19.2701 13.803 19.0001 13.03C17.3331 14.677 16.0671 15.5 15.2001 15.5C19.1951 8.5 17.0001 5.5 11.0001 1.5C11.5001 6.5 8.20409 8.774 6.86209 10.037C5.76742 11.0667 5.00733 12.4015 4.68038 13.8683C4.35342 15.3352 4.47468 16.8664 5.02844 18.2635C5.5822 19.6606 6.5429 20.8592 7.786 21.7037C9.0291 22.5483 10.4972 22.9999 12.0001 23ZM12.7101 5.235C15.9511 7.985 15.9671 10.122 13.4631 14.509C12.7021 15.842 13.6651 17.5 15.2001 17.5C15.8881 17.5 16.5841 17.3 17.3191 16.905C17.1012 17.728 16.6953 18.4892 16.1333 19.1286C15.5712 19.768 14.8684 20.2682 14.0802 20.5899C13.2919 20.9115 12.4398 21.0458 11.5908 20.9821C10.7419 20.9184 9.91933 20.6585 9.1879 20.2229C8.45647 19.7873 7.83615 19.1878 7.37578 18.4717C6.91541 17.7556 6.62757 16.9424 6.53491 16.0961C6.44226 15.2498 6.54732 14.3936 6.84183 13.5948C7.13634 12.7961 7.61225 12.0766 8.23209 11.493C8.35809 11.375 8.99709 10.808 9.02509 10.783C9.44909 10.403 9.79809 10.066 10.1431 9.697C11.3731 8.379 12.2571 6.917 12.7091 5.235H12.7101Z" fill="white"/>
</g>
<defs>
<clipPath id="clip0_1_76">
<rect width="24" height="24" fill="white"/>
</clipPath>
</defs>
</svg>
