<svg width="14" height="14" viewBox="0 0 14 14" fill="none" xmlns="http://www.w3.org/2000/svg">
<g opacity="0.6" clip-path="url(#clip0_33_507)">
<path d="M10.4449 3.81815C10.3888 3.76274 10.3219 3.71929 10.2485 3.69042C10.1751 3.66154 10.0966 3.64785 10.0177 3.65015H5.29932C5.11532 3.65335 4.97932 3.71095 4.87932 3.81095C4.64892 4.04135 4.64572 4.36775 4.86492 4.58695C4.91749 4.6398 4.98011 4.68161 5.04907 4.70991C5.11804 4.73821 5.19197 4.75244 5.26652 4.75175L6.89372 4.76295L8.88572 4.67335L8.00332 5.45575L3.65132 9.80775C3.41052 10.0478 3.41052 10.379 3.64732 10.6158C3.88092 10.8494 4.21132 10.8494 4.45212 10.6086L8.80412 6.25655L9.58652 5.37335L9.49692 7.36615L9.50732 8.99255C9.50667 9.06728 9.52099 9.14139 9.54944 9.21049C9.57788 9.2796 9.61986 9.34232 9.67292 9.39495C9.89212 9.61415 10.2185 9.61095 10.4489 9.38055C10.554 9.27191 10.6118 9.12609 10.6097 8.97495V4.24215C10.6121 4.16404 10.5987 4.08624 10.5704 4.0134C10.5421 3.94055 10.4994 3.87415 10.4449 3.81815Z" fill="white"/>
</g>
<defs>
<clipPath id="clip0_33_507">
<rect width="12.8" height="12.8" fill="white" transform="translate(0.640137 0.819824)"/>
</clipPath>
</defs>
</svg>
