<svg width="187" height="41" viewBox="0 0 187 41" fill="none" xmlns="http://www.w3.org/2000/svg">
<g clip-path="url(#clip0_43_153)">
<path fill-rule="evenodd" clip-rule="evenodd" d="M59.2429 2.72867C59.2429 1.33928 60.3815 0.212952 61.7862 0.212952H66.2168C67.2165 0.212952 68.1854 0.555651 68.9584 1.18271L70.3062 2.27599L70.3399 2.3064C70.371 2.29602 70.4021 2.28588 70.4333 2.27599C72.8649 1.5056 75.8151 1.35909 78.8262 1.35909C81.8373 1.35909 84.7875 1.5056 87.2191 2.27599C87.2503 2.28588 87.2814 2.29602 87.3125 2.3064L87.3462 2.27599L88.694 1.18271C89.467 0.555651 90.4359 0.212952 91.4356 0.212952H95.8662C97.2709 0.212952 98.4095 1.33928 98.4095 2.72867V4.28385C98.4095 5.4871 97.8971 6.63469 96.9979 7.44509L95.9106 8.42508C95.3798 8.9035 94.7427 9.25168 94.0507 9.4415L93.7935 9.51206C94.801 11.89 95.3576 14.4318 95.3576 16.488C95.3576 24.7594 90.1837 28.3317 85.6249 31.4793C82.0348 33.9581 78.8262 36.1734 78.8262 40.213C78.8262 36.1734 75.6176 33.9581 72.0275 31.4793C67.4687 28.3317 62.2948 24.7594 62.2948 16.488C62.2948 14.4318 62.8514 11.89 63.8589 9.51206L63.6017 9.4415C62.9097 9.25168 62.2726 8.9035 61.7418 8.42508L60.6545 7.44509C59.7553 6.63469 59.2429 5.4871 59.2429 4.28385V2.72867ZM82.1325 23.2502C82.1325 23.6454 81.9583 24.0243 81.6483 24.3038C81.3383 24.5832 80.9178 24.7402 80.4793 24.7402C80.1008 24.7402 79.7356 24.6231 79.4434 24.4113C79.9408 25.7283 81.2137 26.9762 83.1498 24.9694C84.859 23.1047 83.0738 19.1718 81.3346 16.838C80.7549 16.0601 79.8032 15.6857 78.8262 15.6857C77.8492 15.6857 76.8975 16.0601 76.3178 16.838C74.5786 19.1718 72.7934 23.1047 74.5026 24.9694C76.4387 26.9762 77.7116 25.7283 78.209 24.4113C77.9168 24.6231 77.5516 24.7402 77.1731 24.7402C76.7346 24.7402 76.3141 24.5832 76.0041 24.3038C75.6941 24.0243 75.5199 23.6454 75.5199 23.2502H82.1325ZM72.4955 11.6081H67.8901L71.5196 14.4828C72.3183 15.1153 73.4857 14.9131 73.9799 14.0566C74.6039 12.9752 73.7751 11.6081 72.4955 11.6081ZM85.1569 11.6081H89.7623L86.1328 14.4828C85.3341 15.1153 84.1667 14.9131 83.6725 14.0566C83.0485 12.9752 83.8773 11.6081 85.1569 11.6081Z" fill="#457BFF"/>
<path d="M103.896 28.5463H107.976V13.1563H103.896V28.5463ZM103.896 10.7563H107.976V7.09628H103.896V10.7563Z" fill="black"/>
<path d="M110.605 33.5863H114.685V26.8063H114.745C115.615 28.1263 117.025 28.9963 119.185 28.9963C123.145 28.9963 125.845 25.8463 125.845 20.8663C125.845 16.0663 123.235 12.7363 119.155 12.7363C117.055 12.7363 115.615 13.7263 114.625 15.0763H114.535V13.1563H110.605V33.5863ZM118.315 25.6063C115.885 25.6063 114.595 23.7763 114.595 20.9863C114.595 18.2263 115.615 16.0363 118.165 16.0363C120.685 16.0363 121.705 18.0763 121.705 20.9863C121.705 23.8963 120.385 25.6063 118.315 25.6063Z" fill="black"/>
<path d="M133.984 28.9963C137.824 28.9963 140.464 27.1363 140.464 24.0463C140.464 20.4463 137.614 19.7263 135.034 19.1863C132.844 18.7363 130.804 18.6163 130.804 17.2963C130.804 16.1863 131.854 15.5863 133.444 15.5863C135.184 15.5863 136.234 16.1863 136.414 17.8363H140.104C139.804 14.7463 137.554 12.7363 133.504 12.7363C129.994 12.7363 127.234 14.3263 127.234 17.6563C127.234 21.0163 129.934 21.7663 132.694 22.3063C134.794 22.7263 136.744 22.8763 136.744 24.3463C136.744 25.4263 135.724 26.1163 133.924 26.1163C132.094 26.1163 130.834 25.3363 130.564 23.5663H126.784C127.024 26.8363 129.514 28.9963 133.984 28.9963Z" fill="black"/>
<path d="M155.955 28.5463V13.1563H151.875V22.0363C151.875 24.0763 150.705 25.5163 148.785 25.5163C147.045 25.5163 146.235 24.5263 146.235 22.7263V13.1563H142.185V23.4163C142.185 26.7763 144.105 28.9663 147.525 28.9663C149.685 28.9663 150.885 28.1563 151.935 26.7463H152.025V28.5463H155.955Z" fill="black"/>
<path d="M158.594 28.5463H162.674V19.6063C162.674 17.5663 163.784 16.2463 165.434 16.2463C166.934 16.2463 167.804 17.1463 167.804 18.8863V28.5463H171.884V19.6063C171.884 17.5663 172.934 16.2463 174.644 16.2463C176.144 16.2463 177.014 17.1463 177.014 18.8863V28.5463H181.094V18.1963C181.094 14.8363 179.264 12.7363 176.024 12.7363C174.074 12.7363 172.454 13.7563 171.404 15.4363H171.344C170.594 13.8163 169.034 12.7363 167.084 12.7363C164.954 12.7363 163.454 13.8163 162.614 15.2263H162.524V13.1563H158.594V28.5463Z" fill="black"/>
<path d="M0.889893 28.5463H4.96989V7.09628H0.889893V28.5463Z" fill="black"/>
<path d="M14.9461 28.9963C19.7161 28.9963 22.9861 25.4563 22.9861 20.8663C22.9861 16.2763 19.7161 12.7363 14.9461 12.7363C10.176 12.7363 6.90601 16.2763 6.90601 20.8663C6.90601 25.4563 10.176 28.9963 14.9461 28.9963ZM14.9461 25.8763C12.4261 25.8763 11.0461 23.8663 11.0461 20.8663C11.0461 17.8663 12.4261 15.8263 14.9461 15.8263C17.4361 15.8263 18.8461 17.8663 18.8461 20.8663C18.8461 23.8663 17.4361 25.8763 14.9461 25.8763Z" fill="black"/>
<path d="M31.6626 33.7963C33.9426 33.7963 35.9226 33.2563 37.2126 32.0563C38.3526 31.0063 39.0426 29.5363 39.0426 27.3763V13.1563H35.1126V14.7763H35.0526C34.1226 13.4863 32.7126 12.7363 30.7926 12.7363C26.8926 12.7363 24.1326 15.6763 24.1326 20.2663C24.1326 24.9163 27.4926 27.6163 30.9126 27.6163C32.8626 27.6163 34.0326 26.8363 34.9326 25.8163H35.0226V27.4963C35.0226 29.5963 33.9126 30.7063 31.6026 30.7063C29.7126 30.7063 28.8426 29.9563 28.5126 28.9963H24.4626C24.8826 31.9963 27.4626 33.7963 31.6626 33.7963ZM31.6026 24.3463C29.5026 24.3463 28.1226 22.8163 28.1226 20.2063C28.1226 17.6263 29.5026 16.0063 31.5726 16.0063C34.0326 16.0063 35.2326 17.9263 35.2326 20.1763C35.2326 22.4563 34.1826 24.3463 31.6026 24.3463Z" fill="black"/>
<path d="M48.9597 28.9963C53.7297 28.9963 56.9997 25.4563 56.9997 20.8663C56.9997 16.2763 53.7297 12.7363 48.9597 12.7363C44.1897 12.7363 40.9197 16.2763 40.9197 20.8663C40.9197 25.4563 44.1897 28.9963 48.9597 28.9963ZM48.9597 25.8763C46.4397 25.8763 45.0597 23.8663 45.0597 20.8663C45.0597 17.8663 46.4397 15.8263 48.9597 15.8263C51.4497 15.8263 52.8597 17.8663 52.8597 20.8663C52.8597 23.8663 51.4497 25.8763 48.9597 25.8763Z" fill="black"/>
<path d="M180.91 9.7963C180.91 9.10594 181.469 8.5463 182.16 8.5463H184.66C185.35 8.5463 185.91 9.10594 185.91 9.7963C185.91 10.4866 185.35 11.0463 184.66 11.0463H182.16C181.469 11.0463 180.91 10.4866 180.91 9.7963Z" fill="black"/>
</g>
<defs>
<clipPath id="clip0_43_153">
<rect width="186" height="41" fill="white" transform="translate(0.205811)"/>
</clipPath>
</defs>
</svg>
