<svg width="135" height="54" viewBox="0 0 135 54" fill="none" xmlns="http://www.w3.org/2000/svg">
<g clip-path="url(#clip0_1_84)">
<path d="M17.89 44.76C17.89 46.5306 17.3648 48.2614 16.381 49.7334C15.3971 51.2054 13.9987 52.3526 12.3627 53.0297C10.7267 53.7068 8.92666 53.8834 7.19026 53.5373C5.45385 53.1911 3.85913 52.3377 2.60785 51.0851C1.35657 49.8324 0.504956 48.2367 0.160748 46.4999C-0.183459 44.7631 -0.00479198 42.9633 0.674146 41.3281C1.35308 39.6928 2.50178 38.2957 3.97492 37.3135C5.44805 36.3313 7.17943 35.808 8.94999 35.81C11.3219 35.8127 13.5958 36.7568 15.2721 38.4349C16.9484 40.1131 17.89 42.388 17.89 44.76Z" fill="#FDCC0E"/>
<path d="M60.41 48.9C60.41 51.51 59.15 52.77 56.54 52.77H50.83C48.22 52.77 46.9601 51.51 46.9601 48.9V25.71C46.9601 22.6 45.8701 20.5 42.26 20.5C39.6155 20.5372 37.0305 21.2906 34.7801 22.68V48.9C34.7801 51.51 33.52 52.77 30.91 52.77H25.17C22.56 52.77 21.3 51.51 21.3 48.9V14.62C21.3 12.01 22.56 10.75 25.17 10.75H27.2701C29.12 10.75 29.87 11.68 31.05 13.75C35.4583 11.0637 40.5082 9.61298 45.67 9.54999C57.1001 9.54999 60.3801 15.55 60.3801 23.66L60.41 48.9Z" fill="#231F20"/>
<path d="M98.39 36.22H77.47C77.13 41.68 79.99 43.27 86.54 43.27C89.7176 43.354 92.8897 42.9596 95.95 42.1C99.31 41.34 101.25 43.36 101.25 45.88V47.47C101.25 49.74 100.41 51.17 98.25 51.93C93.8962 53.2695 89.3651 53.9438 84.81 53.93C70.94 53.93 64.22 46.93 64.22 31.75C64.22 16.57 70.86 9.57001 83.88 9.57001C100.1 9.57001 102.62 20.49 102.28 32.34C102.25 34.87 101 36.22 98.39 36.22ZM77.47 28H89.4C90.15 23.38 89.15 19.68 84.02 19.68C79.48 19.66 77.47 22.68 77.47 28Z" fill="#231F20"/>
<path d="M110.41 5.62998C110.41 3.18998 111.41 2.26998 114.41 1.42998L118.78 0.249982C122.31 -0.680018 123.78 1.08998 123.78 3.68998V10.75H130.34C132.94 10.75 134.2 12.01 134.2 14.62V18.06C134.2 20.67 132.94 21.93 130.34 21.93H123.78V38C123.78 41.28 125.04 43.12 129.33 43.12H130.17C130.642 43.1008 131.114 43.1784 131.555 43.348C131.997 43.5176 132.399 43.7756 132.737 44.1061C133.075 44.4367 133.342 44.8329 133.521 45.2703C133.7 45.7077 133.789 46.1772 133.78 46.65V49.43C133.807 50.4265 133.474 51.3993 132.842 52.1705C132.21 52.9417 131.322 53.4598 130.34 53.63C129.09 53.859 127.821 53.9695 126.55 53.96C114.62 53.96 110.34 49.01 110.34 39.09V21.93H107.17C104.56 21.93 103.3 20.67 103.3 18.06V16.13C103.3 13.95 104.23 12.85 106.66 12.18L110.45 11.18L110.41 5.62998Z" fill="#231F20"/>
</g>
<defs>
<clipPath id="clip0_1_84">
<rect width="134.27" height="53.94" fill="white"/>
</clipPath>
</defs>
</svg>
