<svg width="80" height="70" viewBox="0 0 80 70" fill="none" xmlns="http://www.w3.org/2000/svg">
<path d="M69.596 58.9585H68.2453C64.6433 58.862 61.7488 57.7685 59.6262 55.6459C58.179 54.1665 57.3107 52.8801 57.0212 51.7545L64.2574 47.5415C64.4503 50.1786 66.7337 52.1726 69.4031 52.0118C71.2362 51.8831 72.8121 50.7254 73.5196 49.053L73.5518 48.9565L73.6161 48.8279C73.6483 48.6992 73.6804 48.6028 73.7126 48.5063C73.7769 48.3133 73.8091 48.1203 73.8412 47.9274V47.8631L73.8734 47.7987L73.9056 47.7023V47.5415H73.9377V45.0329L73.7448 45.1294L73.5518 45.1937C71.9759 45.8369 70.2714 46.1907 68.5669 46.1585C66.2835 46.1907 64.0322 45.5475 62.0704 44.4219C57.8896 42.0741 55.3489 37.6681 55.381 32.9084C55.381 31.1074 55.7348 29.3385 56.4745 27.6983C58.5649 22.8742 63.3247 19.7547 68.5669 19.7547C71.5257 19.7547 73.7126 20.1406 75.1277 20.9124C76.8322 21.62 78.3116 22.7456 79.4372 24.1928C73.5518 5.86125 53.9338 -4.20504 35.6344 1.68036C25.343 4.99291 17.2063 12.8723 13.54 23.0029C14.7621 22.0059 16.1129 21.2019 17.5601 20.6551C20.9691 19.3687 24.6998 19.3687 28.0766 20.6551C29.749 21.2662 31.2605 22.1667 32.5791 23.3566C33.8656 24.5466 34.9269 25.9617 35.6344 27.5697C37.1138 30.8501 37.1138 34.6129 35.6665 37.9254C34.9269 39.5335 33.8656 40.9485 32.5791 42.1385C31.2605 43.3284 29.749 44.2611 28.0766 44.8721C24.1209 46.3837 19.6827 46.1264 15.9521 44.1324C14.4727 43.3606 13.1541 42.2993 12.0285 41.0772C15.4697 59.9876 33.5761 72.5624 52.4866 69.1213C59.8192 67.7705 66.5086 64.1364 71.6222 58.7334C70.8825 58.8942 70.2393 58.9263 69.596 58.9585ZM52.8082 27.1516C52.3258 26.8622 51.8112 26.7013 51.2645 26.7013H50.8464C48.9167 26.7978 47.9519 28.1486 47.9519 30.7536V45.1294H40.362V30.7536C40.362 23.8391 43.8675 20.2049 50.8464 19.8511H51.2645C51.779 19.8833 52.2936 19.9155 52.8082 20.0119V27.1516ZM22.7058 38.9867C21.0335 39.0189 19.4254 38.3435 18.2676 37.1536C17.0455 36.0279 16.338 34.4521 16.3702 32.7797C16.3702 31.6863 16.6918 30.625 17.2707 29.7245C17.8495 28.7596 18.6536 27.9878 19.6184 27.4732C21.548 26.3476 23.9279 26.3476 25.8575 27.4732C26.8224 28.0199 27.6264 28.7918 28.2053 29.7245C28.7842 30.6571 29.1058 31.7184 29.1058 32.7797C29.1379 34.4521 28.4304 36.0279 27.2083 37.1536C25.9862 38.3435 24.3782 39.051 22.7058 38.9867ZM74.2915 29.8209C75.7387 32.233 75.3206 35.2882 73.2945 37.2179C70.9468 39.6299 67.1197 39.6621 64.7398 37.3465C64.7076 37.3144 64.6433 37.25 64.6111 37.2179C62.585 35.2882 62.1669 32.233 63.6142 29.8209C64.1931 28.8883 64.9649 28.1164 65.9297 27.5697C66.8624 27.023 67.8915 26.7657 68.9528 26.7657C71.1397 26.83 73.198 27.9556 74.2915 29.8209ZM8.8124 41.6239C8.8124 44.0681 6.8506 46.0299 4.40639 46.0299C1.96218 46.0299 0.000383656 44.0681 0.000383656 41.6239C-0.031777 39.1797 1.96218 37.2179 4.40639 37.2179C6.81844 37.2179 8.8124 39.2118 8.8124 41.6239Z" fill="#233F95"/>
</svg>
