<svg width="334" height="141" viewBox="0 0 334 141" fill="none" xmlns="http://www.w3.org/2000/svg">
<rect width="334" height="141" rx="12" fill="white"/>
<circle cx="52" cy="60" r="30" fill="#F2F2F7"/>
<path d="M50.65 42.2875L38.9833 47.4708C37.7833 48.0042 37 49.2042 37 50.5208V58.3542C37 67.6042 43.4 76.2542 52 78.3542C60.6 76.2542 67 67.6042 67 58.3542V50.5208C67 49.2042 66.2167 48.0042 65.0167 47.4708L53.35 42.2875C52.5 41.9042 51.5 41.9042 50.65 42.2875ZM52 60.0042H63.6667C62.7833 66.8708 58.2 72.9875 52 74.9042V60.0208H40.3333V50.5208L52 45.3375V60.0042Z" fill="#457BFF"/>
<path d="M105.48 49V34.8H111.5C112.153 34.8 112.753 34.9333 113.3 35.2C113.847 35.4667 114.32 35.8267 114.72 36.28C115.133 36.7333 115.453 37.24 115.68 37.8C115.907 38.36 116.02 38.9333 116.02 39.52C116.02 40.32 115.833 41.08 115.46 41.8C115.087 42.52 114.573 43.1067 113.92 43.56C113.267 44.0133 112.493 44.24 111.6 44.24H108.24V49H105.48ZM108.24 41.82H111.44C111.773 41.82 112.073 41.7267 112.34 41.54C112.607 41.3533 112.82 41.0867 112.98 40.74C113.14 40.38 113.22 39.9733 113.22 39.52C113.22 39.0267 113.127 38.6067 112.94 38.26C112.767 37.9133 112.533 37.6533 112.24 37.48C111.96 37.3067 111.653 37.22 111.32 37.22H108.24V41.82ZM123.921 40.84C123.108 40.84 122.381 41 121.741 41.32C121.101 41.6267 120.641 42.0733 120.361 42.66V49H117.681V38.52H120.141V40.76C120.514 40.04 120.988 39.4733 121.561 39.06C122.134 38.6467 122.741 38.42 123.381 38.38C123.528 38.38 123.641 38.38 123.721 38.38C123.801 38.38 123.868 38.3867 123.921 38.4V40.84ZM130.139 49.2C129.299 49.2 128.539 49.06 127.859 48.78C127.179 48.4867 126.599 48.0933 126.119 47.6C125.639 47.0933 125.265 46.52 124.999 45.88C124.745 45.2267 124.619 44.54 124.619 43.82C124.619 42.82 124.839 41.9067 125.279 41.08C125.732 40.2533 126.372 39.5933 127.199 39.1C128.039 38.5933 129.025 38.34 130.159 38.34C131.305 38.34 132.285 38.5933 133.099 39.1C133.912 39.5933 134.532 40.2533 134.959 41.08C135.399 41.8933 135.619 42.7733 135.619 43.72C135.619 43.88 135.612 44.0467 135.599 44.22C135.585 44.38 135.572 44.5133 135.559 44.62H127.459C127.512 45.1533 127.665 45.62 127.919 46.02C128.185 46.42 128.519 46.7267 128.919 46.94C129.332 47.14 129.772 47.24 130.239 47.24C130.772 47.24 131.272 47.1133 131.739 46.86C132.219 46.5933 132.545 46.2467 132.719 45.82L135.019 46.46C134.765 46.9933 134.399 47.4667 133.919 47.88C133.452 48.2933 132.899 48.62 132.259 48.86C131.619 49.0867 130.912 49.2 130.139 49.2ZM127.399 42.92H132.879C132.825 42.3867 132.672 41.9267 132.419 41.54C132.179 41.14 131.859 40.8333 131.459 40.62C131.059 40.3933 130.612 40.28 130.119 40.28C129.639 40.28 129.199 40.3933 128.799 40.62C128.412 40.8333 128.092 41.14 127.839 41.54C127.599 41.9267 127.452 42.3867 127.399 42.92ZM153.531 49H150.851V43.12C150.851 42.2933 150.705 41.6867 150.411 41.3C150.131 40.9 149.738 40.7 149.231 40.7C148.711 40.7 148.211 40.9067 147.731 41.32C147.265 41.72 146.931 42.2467 146.731 42.9V49H144.051V43.12C144.051 42.28 143.905 41.6667 143.611 41.28C143.331 40.8933 142.938 40.7 142.431 40.7C141.911 40.7 141.411 40.9 140.931 41.3C140.465 41.7 140.131 42.2267 139.931 42.88V49H137.251V38.52H139.671V40.46C140.071 39.78 140.605 39.26 141.271 38.9C141.938 38.5267 142.705 38.34 143.571 38.34C144.438 38.34 145.111 38.5533 145.591 38.98C146.085 39.4067 146.398 39.9333 146.531 40.56C146.958 39.84 147.498 39.2933 148.151 38.92C148.818 38.5333 149.565 38.34 150.391 38.34C151.045 38.34 151.571 38.46 151.971 38.7C152.385 38.9267 152.705 39.24 152.931 39.64C153.158 40.0267 153.311 40.4667 153.391 40.96C153.485 41.4533 153.531 41.9533 153.531 42.46V49ZM155.865 49V38.52H158.545V49H155.865ZM155.865 37.06V34.4H158.545V37.06H155.865ZM160.862 45.08V38.52H163.542V44.5C163.542 45.3 163.689 45.9067 163.982 46.32C164.276 46.72 164.709 46.92 165.282 46.92C165.629 46.92 165.969 46.8533 166.302 46.72C166.649 46.5733 166.962 46.36 167.242 46.08C167.536 45.8 167.782 45.4467 167.982 45.02V38.52H170.662V46C170.662 46.28 170.709 46.48 170.802 46.6C170.909 46.72 171.076 46.7933 171.302 46.82V49C171.036 49.04 170.809 49.0667 170.622 49.08C170.449 49.1067 170.289 49.12 170.142 49.12C169.662 49.12 169.269 49.0133 168.962 48.8C168.669 48.5733 168.496 48.2667 168.442 47.88L168.382 47.04C167.916 47.7467 167.316 48.2867 166.582 48.66C165.849 49.02 165.042 49.2 164.162 49.2C163.082 49.2 162.262 48.8533 161.702 48.16C161.142 47.4533 160.862 46.4267 160.862 45.08ZM189.605 49H186.925V43.12C186.925 42.2933 186.779 41.6867 186.485 41.3C186.205 40.9 185.812 40.7 185.305 40.7C184.785 40.7 184.285 40.9067 183.805 41.32C183.339 41.72 183.005 42.2467 182.805 42.9V49H180.125V43.12C180.125 42.28 179.979 41.6667 179.685 41.28C179.405 40.8933 179.012 40.7 178.505 40.7C177.985 40.7 177.485 40.9 177.005 41.3C176.539 41.7 176.205 42.2267 176.005 42.88V49H173.325V38.52H175.745V40.46C176.145 39.78 176.679 39.26 177.345 38.9C178.012 38.5267 178.779 38.34 179.645 38.34C180.512 38.34 181.185 38.5533 181.665 38.98C182.159 39.4067 182.472 39.9333 182.605 40.56C183.032 39.84 183.572 39.2933 184.225 38.92C184.892 38.5333 185.639 38.34 186.465 38.34C187.119 38.34 187.645 38.46 188.045 38.7C188.459 38.9267 188.779 39.24 189.005 39.64C189.232 40.0267 189.385 40.4667 189.465 40.96C189.559 41.4533 189.605 41.9533 189.605 42.46V49ZM205.463 38.52C205.37 38.4267 205.197 38.3 204.943 38.14C204.703 37.98 204.403 37.8267 204.043 37.68C203.697 37.5333 203.317 37.4067 202.903 37.3C202.49 37.18 202.07 37.12 201.643 37.12C200.897 37.12 200.33 37.26 199.943 37.54C199.57 37.82 199.383 38.2133 199.383 38.72C199.383 39.1067 199.503 39.4133 199.743 39.64C199.983 39.8667 200.343 40.06 200.823 40.22C201.303 40.38 201.903 40.5533 202.623 40.74C203.557 40.9667 204.363 41.2467 205.043 41.58C205.737 41.9 206.263 42.3267 206.623 42.86C206.997 43.38 207.183 44.0733 207.183 44.94C207.183 45.7 207.043 46.3533 206.763 46.9C206.483 47.4333 206.097 47.8667 205.603 48.2C205.11 48.5333 204.55 48.78 203.923 48.94C203.297 49.0867 202.63 49.16 201.923 49.16C201.217 49.16 200.51 49.0867 199.803 48.94C199.097 48.7933 198.417 48.5867 197.763 48.32C197.11 48.04 196.51 47.7067 195.963 47.32L197.183 44.94C197.303 45.06 197.517 45.22 197.823 45.42C198.13 45.6067 198.503 45.8 198.943 46C199.383 46.1867 199.863 46.3467 200.383 46.48C200.903 46.6133 201.43 46.68 201.963 46.68C202.71 46.68 203.277 46.5533 203.663 46.3C204.05 46.0467 204.243 45.6867 204.243 45.22C204.243 44.7933 204.09 44.46 203.783 44.22C203.477 43.98 203.05 43.7733 202.503 43.6C201.957 43.4133 201.31 43.2133 200.563 43C199.67 42.7467 198.923 42.4667 198.323 42.16C197.723 41.84 197.277 41.44 196.983 40.96C196.69 40.48 196.543 39.88 196.543 39.16C196.543 38.1867 196.77 37.3733 197.223 36.72C197.69 36.0533 198.317 35.5533 199.103 35.22C199.89 34.8733 200.763 34.7 201.723 34.7C202.39 34.7 203.017 34.7733 203.603 34.92C204.203 35.0667 204.763 35.26 205.283 35.5C205.803 35.74 206.27 36 206.683 36.28L205.463 38.52ZM217.729 38.52C217.636 38.4267 217.462 38.3 217.209 38.14C216.969 37.98 216.669 37.8267 216.309 37.68C215.962 37.5333 215.582 37.4067 215.169 37.3C214.756 37.18 214.336 37.12 213.909 37.12C213.162 37.12 212.596 37.26 212.209 37.54C211.836 37.82 211.649 38.2133 211.649 38.72C211.649 39.1067 211.769 39.4133 212.009 39.64C212.249 39.8667 212.609 40.06 213.089 40.22C213.569 40.38 214.169 40.5533 214.889 40.74C215.822 40.9667 216.629 41.2467 217.309 41.58C218.002 41.9 218.529 42.3267 218.889 42.86C219.262 43.38 219.449 44.0733 219.449 44.94C219.449 45.7 219.309 46.3533 219.029 46.9C218.749 47.4333 218.362 47.8667 217.869 48.2C217.376 48.5333 216.816 48.78 216.189 48.94C215.562 49.0867 214.896 49.16 214.189 49.16C213.482 49.16 212.776 49.0867 212.069 48.94C211.362 48.7933 210.682 48.5867 210.029 48.32C209.376 48.04 208.776 47.7067 208.229 47.32L209.449 44.94C209.569 45.06 209.782 45.22 210.089 45.42C210.396 45.6067 210.769 45.8 211.209 46C211.649 46.1867 212.129 46.3467 212.649 46.48C213.169 46.6133 213.696 46.68 214.229 46.68C214.976 46.68 215.542 46.5533 215.929 46.3C216.316 46.0467 216.509 45.6867 216.509 45.22C216.509 44.7933 216.356 44.46 216.049 44.22C215.742 43.98 215.316 43.7733 214.769 43.6C214.222 43.4133 213.576 43.2133 212.829 43C211.936 42.7467 211.189 42.4667 210.589 42.16C209.989 41.84 209.542 41.44 209.249 40.96C208.956 40.48 208.809 39.88 208.809 39.16C208.809 38.1867 209.036 37.3733 209.489 36.72C209.956 36.0533 210.582 35.5533 211.369 35.22C212.156 34.8733 213.029 34.7 213.989 34.7C214.656 34.7 215.282 34.7733 215.869 34.92C216.469 35.0667 217.029 35.26 217.549 35.5C218.069 35.74 218.536 36 218.949 36.28L217.729 38.52ZM221.535 49V34.8H224.295V46.58H231.535V49H221.535Z" fill="black"/>
<path d="M105.7 80V65.8H107.5V78.4H115.42V80H105.7ZM121.503 80.2C120.717 80.2 120.003 80.06 119.363 79.78C118.723 79.4867 118.17 79.0933 117.703 78.6C117.237 78.0933 116.877 77.5133 116.623 76.86C116.37 76.2067 116.243 75.52 116.243 74.8C116.243 74.0667 116.37 73.3733 116.623 72.72C116.877 72.0667 117.237 71.4933 117.703 71C118.17 70.4933 118.723 70.1 119.363 69.82C120.017 69.5267 120.73 69.38 121.503 69.38C122.29 69.38 123.003 69.5267 123.643 69.82C124.283 70.1 124.837 70.4933 125.303 71C125.783 71.4933 126.15 72.0667 126.403 72.72C126.657 73.3733 126.783 74.0667 126.783 74.8C126.783 75.52 126.657 76.2067 126.403 76.86C126.15 77.5133 125.79 78.0933 125.323 78.6C124.857 79.0933 124.297 79.4867 123.643 79.78C123.003 80.06 122.29 80.2 121.503 80.2ZM118.043 74.82C118.043 75.54 118.197 76.1933 118.503 76.78C118.823 77.3667 119.243 77.8333 119.763 78.18C120.283 78.5133 120.863 78.68 121.503 78.68C122.143 78.68 122.723 78.5067 123.243 78.16C123.777 77.8133 124.197 77.3467 124.503 76.76C124.823 76.16 124.983 75.5 124.983 74.78C124.983 74.06 124.823 73.4067 124.503 72.82C124.197 72.2333 123.777 71.7667 123.243 71.42C122.723 71.0733 122.143 70.9 121.503 70.9C120.863 70.9 120.283 71.08 119.763 71.44C119.243 71.7867 118.823 72.2533 118.503 72.84C118.197 73.4267 118.043 74.0867 118.043 74.82ZM134.436 71.1C133.556 71.1133 132.776 71.34 132.096 71.78C131.429 72.2067 130.956 72.8 130.676 73.56V80H128.916V69.56H130.556V71.98C130.916 71.26 131.389 70.68 131.976 70.24C132.576 69.7867 133.203 69.5333 133.856 69.48C133.989 69.48 134.103 69.48 134.196 69.48C134.289 69.48 134.369 69.4867 134.436 69.5V71.1ZM140.548 80.2C139.761 80.2 139.041 80.06 138.388 79.78C137.748 79.4867 137.188 79.0933 136.708 78.6C136.241 78.0933 135.874 77.5133 135.608 76.86C135.354 76.2067 135.228 75.5133 135.228 74.78C135.228 73.7933 135.454 72.8933 135.908 72.08C136.361 71.2667 136.988 70.6133 137.788 70.12C138.601 69.6267 139.528 69.38 140.568 69.38C141.621 69.38 142.534 69.6333 143.308 70.14C144.094 70.6333 144.701 71.2867 145.128 72.1C145.568 72.9 145.788 73.7667 145.788 74.7C145.788 74.8333 145.781 74.9667 145.768 75.1C145.768 75.22 145.761 75.3133 145.748 75.38H137.088C137.141 76.06 137.328 76.6667 137.648 77.2C137.981 77.72 138.408 78.1333 138.928 78.44C139.448 78.7333 140.008 78.88 140.608 78.88C141.248 78.88 141.848 78.72 142.408 78.4C142.981 78.08 143.374 77.66 143.588 77.14L145.108 77.56C144.881 78.0667 144.541 78.52 144.088 78.92C143.648 79.32 143.121 79.6333 142.508 79.86C141.908 80.0867 141.254 80.2 140.548 80.2ZM137.028 74.16H144.148C144.094 73.48 143.901 72.88 143.568 72.36C143.234 71.84 142.808 71.4333 142.288 71.14C141.768 70.8467 141.194 70.7 140.568 70.7C139.954 70.7 139.388 70.8467 138.868 71.14C138.348 71.4333 137.921 71.84 137.588 72.36C137.268 72.88 137.081 73.48 137.028 74.16ZM163.484 80H161.724V74.16C161.724 73.0667 161.544 72.26 161.184 71.74C160.838 71.22 160.318 70.96 159.624 70.96C158.918 70.96 158.278 71.22 157.704 71.74C157.131 72.2467 156.724 72.9067 156.484 73.72V80H154.724V74.16C154.724 73.0533 154.551 72.2467 154.204 71.74C153.858 71.22 153.338 70.96 152.644 70.96C151.951 70.96 151.311 71.2133 150.724 71.72C150.151 72.2133 149.744 72.8733 149.504 73.7V80H147.744V69.56H149.344V71.8C149.771 71.0267 150.324 70.4333 151.004 70.02C151.684 69.5933 152.451 69.38 153.304 69.38C154.171 69.38 154.864 69.62 155.384 70.1C155.904 70.5667 156.224 71.1733 156.344 71.92C156.811 71.0933 157.378 70.4667 158.044 70.04C158.711 69.6 159.471 69.38 160.324 69.38C160.924 69.38 161.424 69.4933 161.824 69.72C162.238 69.9333 162.564 70.24 162.804 70.64C163.044 71.0267 163.218 71.4867 163.324 72.02C163.431 72.5533 163.484 73.1333 163.484 73.76V80ZM171.279 80V69.56H173.039V80H171.279ZM171.279 67.6V65.4H173.039V67.6H171.279ZM181.509 80.2C180.655 80.2 179.895 79.9867 179.229 79.56C178.562 79.1333 178.035 78.5933 177.649 77.94V84.26H175.889V69.56H177.449V71.52C177.862 70.88 178.402 70.3667 179.069 69.98C179.735 69.58 180.462 69.38 181.249 69.38C181.969 69.38 182.629 69.5267 183.229 69.82C183.829 70.1133 184.349 70.5133 184.789 71.02C185.229 71.5267 185.569 72.1067 185.809 72.76C186.062 73.4 186.189 74.0733 186.189 74.78C186.189 75.7667 185.989 76.6733 185.589 77.5C185.202 78.3267 184.655 78.9867 183.949 79.48C183.242 79.96 182.429 80.2 181.509 80.2ZM180.969 78.68C181.489 78.68 181.955 78.5733 182.369 78.36C182.795 78.1333 183.155 77.84 183.449 77.48C183.755 77.1067 183.989 76.6867 184.149 76.22C184.309 75.7533 184.389 75.2733 184.389 74.78C184.389 74.26 184.295 73.7667 184.109 73.3C183.935 72.8333 183.682 72.42 183.349 72.06C183.029 71.7 182.649 71.42 182.209 71.22C181.782 71.0067 181.315 70.9 180.809 70.9C180.489 70.9 180.155 70.96 179.809 71.08C179.475 71.2 179.155 71.3733 178.849 71.6C178.542 71.8133 178.282 72.06 178.069 72.34C177.855 72.62 177.715 72.92 177.649 73.24V76.22C177.849 76.6733 178.115 77.0867 178.449 77.46C178.782 77.8333 179.169 78.1333 179.609 78.36C180.049 78.5733 180.502 78.68 180.969 78.68ZM191.93 80.2C191.063 80.2 190.25 80.06 189.49 79.78C188.73 79.4867 188.076 79.0533 187.53 78.48L188.21 77.24C188.81 77.8 189.41 78.2 190.01 78.44C190.61 78.68 191.223 78.8 191.85 78.8C192.57 78.8 193.156 78.6667 193.61 78.4C194.063 78.12 194.29 77.7133 194.29 77.18C194.29 76.7933 194.17 76.5067 193.93 76.32C193.703 76.1333 193.376 75.98 192.95 75.86C192.523 75.7267 192.016 75.58 191.43 75.42C190.71 75.2067 190.103 74.98 189.61 74.74C189.116 74.5 188.743 74.2 188.49 73.84C188.236 73.48 188.11 73.0267 188.11 72.48C188.11 71.8133 188.283 71.2533 188.63 70.8C188.976 70.3333 189.45 69.98 190.05 69.74C190.663 69.5 191.356 69.38 192.13 69.38C192.903 69.38 193.603 69.5 194.23 69.74C194.856 69.98 195.396 70.3333 195.85 70.8L195.05 72.02C194.636 71.5933 194.183 71.28 193.69 71.08C193.196 70.8667 192.643 70.76 192.03 70.76C191.67 70.76 191.316 70.8067 190.97 70.9C190.623 70.98 190.336 71.1333 190.11 71.36C189.883 71.5733 189.77 71.88 189.77 72.28C189.77 72.6133 189.856 72.88 190.03 73.08C190.216 73.2667 190.483 73.4267 190.83 73.56C191.19 73.6933 191.623 73.84 192.13 74C192.916 74.2267 193.596 74.4533 194.17 74.68C194.756 74.9067 195.21 75.2 195.53 75.56C195.85 75.92 196.01 76.42 196.01 77.06C196.01 78.0467 195.636 78.82 194.89 79.38C194.143 79.9267 193.156 80.2 191.93 80.2ZM198.015 75.82V69.56H199.775V75.48C199.775 76.5467 199.962 77.3467 200.335 77.88C200.709 78.4133 201.262 78.68 201.995 78.68C202.475 78.68 202.935 78.58 203.375 78.38C203.829 78.1667 204.235 77.8667 204.595 77.48C204.955 77.0933 205.235 76.6333 205.435 76.1V69.56H207.195V78C207.195 78.2133 207.235 78.3733 207.315 78.48C207.409 78.5733 207.555 78.6267 207.755 78.64V80C207.555 80.0267 207.395 80.04 207.275 80.04C207.169 80.0533 207.062 80.06 206.955 80.06C206.622 80.06 206.335 79.96 206.095 79.76C205.855 79.5467 205.729 79.2867 205.715 78.98L205.675 77.76C205.222 78.5333 204.609 79.1333 203.835 79.56C203.075 79.9867 202.242 80.2 201.335 80.2C200.242 80.2 199.415 79.8333 198.855 79.1C198.295 78.3533 198.015 77.26 198.015 75.82ZM225.867 80H224.107V74.16C224.107 73.0667 223.927 72.26 223.567 71.74C223.22 71.22 222.7 70.96 222.007 70.96C221.3 70.96 220.66 71.22 220.087 71.74C219.514 72.2467 219.107 72.9067 218.867 73.72V80H217.107V74.16C217.107 73.0533 216.934 72.2467 216.587 71.74C216.24 71.22 215.72 70.96 215.027 70.96C214.334 70.96 213.694 71.2133 213.107 71.72C212.534 72.2133 212.127 72.8733 211.887 73.7V80H210.127V69.56H211.727V71.8C212.154 71.0267 212.707 70.4333 213.387 70.02C214.067 69.5933 214.834 69.38 215.687 69.38C216.554 69.38 217.247 69.62 217.767 70.1C218.287 70.5667 218.607 71.1733 218.727 71.92C219.194 71.0933 219.76 70.4667 220.427 70.04C221.094 69.6 221.854 69.38 222.707 69.38C223.307 69.38 223.807 69.4933 224.207 69.72C224.62 69.9333 224.947 70.24 225.187 70.64C225.427 71.0267 225.6 71.4867 225.707 72.02C225.814 72.5533 225.867 73.1333 225.867 73.76V80ZM232.982 74.8C232.982 73.8133 233.182 72.9133 233.582 72.1C233.996 71.2733 234.556 70.6133 235.262 70.12C235.982 69.6267 236.802 69.38 237.722 69.38C238.562 69.38 239.316 69.6 239.982 70.04C240.649 70.48 241.169 71.0133 241.542 71.64V65.4H243.302V78C243.302 78.2133 243.342 78.3733 243.422 78.48C243.516 78.5733 243.662 78.6267 243.862 78.64V80C243.529 80.0533 243.269 80.08 243.082 80.08C242.736 80.08 242.429 79.96 242.162 79.72C241.909 79.48 241.782 79.2133 241.782 78.92V78.04C241.369 78.7067 240.816 79.2333 240.122 79.62C239.429 80.0067 238.709 80.2 237.962 80.2C237.242 80.2 236.576 80.06 235.962 79.78C235.362 79.4867 234.836 79.0867 234.382 78.58C233.942 78.0733 233.596 77.5 233.342 76.86C233.102 76.2067 232.982 75.52 232.982 74.8ZM241.542 76.34V73.34C241.382 72.8867 241.122 72.48 240.762 72.12C240.402 71.7467 239.996 71.4533 239.542 71.24C239.102 71.0133 238.662 70.9 238.222 70.9C237.702 70.9 237.229 71.0133 236.802 71.24C236.389 71.4533 236.029 71.7467 235.722 72.12C235.429 72.48 235.202 72.8933 235.042 73.36C234.882 73.8267 234.802 74.3133 234.802 74.82C234.802 75.34 234.889 75.8333 235.062 76.3C235.249 76.7667 235.502 77.18 235.822 77.54C236.156 77.9 236.536 78.18 236.962 78.38C237.402 78.58 237.876 78.68 238.382 78.68C238.702 78.68 239.029 78.62 239.362 78.5C239.709 78.38 240.036 78.2133 240.342 78C240.649 77.7867 240.909 77.54 241.122 77.26C241.336 76.9667 241.476 76.66 241.542 76.34ZM250.8 80.2C250.014 80.2 249.3 80.06 248.66 79.78C248.02 79.4867 247.467 79.0933 247 78.6C246.534 78.0933 246.174 77.5133 245.92 76.86C245.667 76.2067 245.54 75.52 245.54 74.8C245.54 74.0667 245.667 73.3733 245.92 72.72C246.174 72.0667 246.534 71.4933 247 71C247.467 70.4933 248.02 70.1 248.66 69.82C249.314 69.5267 250.027 69.38 250.8 69.38C251.587 69.38 252.3 69.5267 252.94 69.82C253.58 70.1 254.134 70.4933 254.6 71C255.08 71.4933 255.447 72.0667 255.7 72.72C255.954 73.3733 256.08 74.0667 256.08 74.8C256.08 75.52 255.954 76.2067 255.7 76.86C255.447 77.5133 255.087 78.0933 254.62 78.6C254.154 79.0933 253.594 79.4867 252.94 79.78C252.3 80.06 251.587 80.2 250.8 80.2ZM247.34 74.82C247.34 75.54 247.494 76.1933 247.8 76.78C248.12 77.3667 248.54 77.8333 249.06 78.18C249.58 78.5133 250.16 78.68 250.8 78.68C251.44 78.68 252.02 78.5067 252.54 78.16C253.074 77.8133 253.494 77.3467 253.8 76.76C254.12 76.16 254.28 75.5 254.28 74.78C254.28 74.06 254.12 73.4067 253.8 72.82C253.494 72.2333 253.074 71.7667 252.54 71.42C252.02 71.0733 251.44 70.9 250.8 70.9C250.16 70.9 249.58 71.08 249.06 71.44C248.54 71.7867 248.12 72.2533 247.8 72.84C247.494 73.4267 247.34 74.0867 247.34 74.82ZM258.253 65.4H260.013V77.3C260.013 77.8733 260.093 78.2267 260.253 78.36C260.413 78.4933 260.606 78.56 260.833 78.56C261.113 78.56 261.38 78.5333 261.633 78.48C261.886 78.4133 262.1 78.3467 262.273 78.28L262.553 79.72C262.26 79.84 261.913 79.94 261.513 80.02C261.113 80.1 260.76 80.14 260.453 80.14C259.773 80.14 259.233 79.9467 258.833 79.56C258.446 79.1733 258.253 78.6333 258.253 77.94V65.4ZM268.496 80.2C267.709 80.2 266.996 80.06 266.356 79.78C265.716 79.4867 265.162 79.0933 264.696 78.6C264.229 78.0933 263.869 77.5133 263.616 76.86C263.362 76.2067 263.236 75.52 263.236 74.8C263.236 74.0667 263.362 73.3733 263.616 72.72C263.869 72.0667 264.229 71.4933 264.696 71C265.162 70.4933 265.716 70.1 266.356 69.82C267.009 69.5267 267.722 69.38 268.496 69.38C269.282 69.38 269.996 69.5267 270.636 69.82C271.276 70.1 271.829 70.4933 272.296 71C272.776 71.4933 273.142 72.0667 273.396 72.72C273.649 73.3733 273.776 74.0667 273.776 74.8C273.776 75.52 273.649 76.2067 273.396 76.86C273.142 77.5133 272.782 78.0933 272.316 78.6C271.849 79.0933 271.289 79.4867 270.636 79.78C269.996 80.06 269.282 80.2 268.496 80.2ZM265.036 74.82C265.036 75.54 265.189 76.1933 265.496 76.78C265.816 77.3667 266.236 77.8333 266.756 78.18C267.276 78.5133 267.856 78.68 268.496 78.68C269.136 78.68 269.716 78.5067 270.236 78.16C270.769 77.8133 271.189 77.3467 271.496 76.76C271.816 76.16 271.976 75.5 271.976 74.78C271.976 74.06 271.816 73.4067 271.496 72.82C271.189 72.2333 270.769 71.7667 270.236 71.42C269.716 71.0733 269.136 70.9 268.496 70.9C267.856 70.9 267.276 71.08 266.756 71.44C266.236 71.7867 265.816 72.2533 265.496 72.84C265.189 73.4267 265.036 74.0867 265.036 74.82ZM281.428 71.1C280.548 71.1133 279.768 71.34 279.088 71.78C278.422 72.2067 277.948 72.8 277.668 73.56V80H275.908V69.56H277.548V71.98C277.908 71.26 278.382 70.68 278.968 70.24C279.568 69.7867 280.195 69.5333 280.848 69.48C280.982 69.48 281.095 69.48 281.188 69.48C281.282 69.48 281.362 69.4867 281.428 69.5V71.1ZM291.344 80.2C290.477 80.2 289.664 80.06 288.904 79.78C288.144 79.4867 287.49 79.0533 286.944 78.48L287.624 77.24C288.224 77.8 288.824 78.2 289.424 78.44C290.024 78.68 290.637 78.8 291.264 78.8C291.984 78.8 292.57 78.6667 293.024 78.4C293.477 78.12 293.704 77.7133 293.704 77.18C293.704 76.7933 293.584 76.5067 293.344 76.32C293.117 76.1333 292.79 75.98 292.364 75.86C291.937 75.7267 291.43 75.58 290.844 75.42C290.124 75.2067 289.517 74.98 289.024 74.74C288.53 74.5 288.157 74.2 287.904 73.84C287.65 73.48 287.524 73.0267 287.524 72.48C287.524 71.8133 287.697 71.2533 288.044 70.8C288.39 70.3333 288.864 69.98 289.464 69.74C290.077 69.5 290.77 69.38 291.544 69.38C292.317 69.38 293.017 69.5 293.644 69.74C294.27 69.98 294.81 70.3333 295.264 70.8L294.464 72.02C294.05 71.5933 293.597 71.28 293.104 71.08C292.61 70.8667 292.057 70.76 291.444 70.76C291.084 70.76 290.73 70.8067 290.384 70.9C290.037 70.98 289.75 71.1333 289.524 71.36C289.297 71.5733 289.184 71.88 289.184 72.28C289.184 72.6133 289.27 72.88 289.444 73.08C289.63 73.2667 289.897 73.4267 290.244 73.56C290.604 73.6933 291.037 73.84 291.544 74C292.33 74.2267 293.01 74.4533 293.584 74.68C294.17 74.9067 294.624 75.2 294.944 75.56C295.264 75.92 295.424 76.42 295.424 77.06C295.424 78.0467 295.05 78.82 294.304 79.38C293.557 79.9267 292.57 80.2 291.344 80.2ZM297.529 80V69.56H299.289V80H297.529ZM297.529 67.6V65.4H299.289V67.6H297.529ZM307.539 79.48C307.392 79.5467 307.192 79.6333 306.939 79.74C306.685 79.8467 306.392 79.94 306.059 80.02C305.725 80.1 305.372 80.14 304.999 80.14C304.572 80.14 304.179 80.0667 303.819 79.92C303.459 79.76 303.172 79.52 302.959 79.2C302.745 78.8667 302.639 78.4533 302.639 77.96V70.94H301.219V69.56H302.639V66.08H304.399V69.56H306.739V70.94H304.399V77.42C304.425 77.7933 304.552 78.0733 304.779 78.26C305.005 78.4333 305.272 78.52 305.579 78.52C305.925 78.52 306.245 78.46 306.539 78.34C306.832 78.22 307.025 78.1333 307.119 78.08L307.539 79.48ZM104.6 102.98C104.6 102.313 104.787 101.74 105.16 101.26C105.547 100.767 106.073 100.387 106.74 100.12C107.407 99.8533 108.18 99.72 109.06 99.72C109.527 99.72 110.02 99.76 110.54 99.84C111.06 99.9067 111.52 100.013 111.92 100.16V99.4C111.92 98.6 111.68 97.9733 111.2 97.52C110.72 97.0533 110.04 96.82 109.16 96.82C108.587 96.82 108.033 96.9267 107.5 97.14C106.98 97.34 106.427 97.6333 105.84 98.02L105.2 96.78C105.88 96.3133 106.56 95.9667 107.24 95.74C107.92 95.5 108.627 95.38 109.36 95.38C110.693 95.38 111.747 95.7533 112.52 96.5C113.293 97.2333 113.68 98.26 113.68 99.58V104C113.68 104.213 113.72 104.373 113.8 104.48C113.893 104.573 114.04 104.627 114.24 104.64V106C114.067 106.027 113.913 106.047 113.78 106.06C113.66 106.073 113.56 106.08 113.48 106.08C113.067 106.08 112.753 105.967 112.54 105.74C112.34 105.513 112.227 105.273 112.2 105.02L112.16 104.36C111.707 104.947 111.113 105.4 110.38 105.72C109.647 106.04 108.92 106.2 108.2 106.2C107.507 106.2 106.887 106.06 106.34 105.78C105.793 105.487 105.367 105.1 105.06 104.62C104.753 104.127 104.6 103.58 104.6 102.98ZM111.4 103.72C111.56 103.533 111.687 103.347 111.78 103.16C111.873 102.96 111.92 102.793 111.92 102.66V101.36C111.507 101.2 111.073 101.08 110.62 101C110.167 100.907 109.72 100.86 109.28 100.86C108.387 100.86 107.66 101.04 107.1 101.4C106.553 101.747 106.28 102.227 106.28 102.84C106.28 103.173 106.367 103.5 106.54 103.82C106.727 104.127 106.993 104.38 107.34 104.58C107.7 104.78 108.14 104.88 108.66 104.88C109.207 104.88 109.727 104.773 110.22 104.56C110.713 104.333 111.107 104.053 111.4 103.72ZM132.234 106H130.474V100.16C130.474 99.0667 130.294 98.26 129.934 97.74C129.588 97.22 129.068 96.96 128.374 96.96C127.668 96.96 127.028 97.22 126.454 97.74C125.881 98.2467 125.474 98.9067 125.234 99.72V106H123.474V100.16C123.474 99.0533 123.301 98.2467 122.954 97.74C122.608 97.22 122.088 96.96 121.394 96.96C120.701 96.96 120.061 97.2133 119.474 97.72C118.901 98.2133 118.494 98.8733 118.254 99.7V106H116.494V95.56H118.094V97.8C118.521 97.0267 119.074 96.4333 119.754 96.02C120.434 95.5933 121.201 95.38 122.054 95.38C122.921 95.38 123.614 95.62 124.134 96.1C124.654 96.5667 124.974 97.1733 125.094 97.92C125.561 97.0933 126.128 96.4667 126.794 96.04C127.461 95.6 128.221 95.38 129.074 95.38C129.674 95.38 130.174 95.4933 130.574 95.72C130.988 95.9333 131.314 96.24 131.554 96.64C131.794 97.0267 131.968 97.4867 132.074 98.02C132.181 98.5533 132.234 99.1333 132.234 99.76V106ZM139.591 106.2C138.804 106.2 138.084 106.06 137.431 105.78C136.791 105.487 136.231 105.093 135.751 104.6C135.284 104.093 134.917 103.513 134.651 102.86C134.397 102.207 134.271 101.513 134.271 100.78C134.271 99.7933 134.497 98.8933 134.951 98.08C135.404 97.2667 136.031 96.6133 136.831 96.12C137.644 95.6267 138.571 95.38 139.611 95.38C140.664 95.38 141.577 95.6333 142.351 96.14C143.137 96.6333 143.744 97.2867 144.171 98.1C144.611 98.9 144.831 99.7667 144.831 100.7C144.831 100.833 144.824 100.967 144.811 101.1C144.811 101.22 144.804 101.313 144.791 101.38H136.131C136.184 102.06 136.371 102.667 136.691 103.2C137.024 103.72 137.451 104.133 137.971 104.44C138.491 104.733 139.051 104.88 139.651 104.88C140.291 104.88 140.891 104.72 141.451 104.4C142.024 104.08 142.417 103.66 142.631 103.14L144.151 103.56C143.924 104.067 143.584 104.52 143.131 104.92C142.691 105.32 142.164 105.633 141.551 105.86C140.951 106.087 140.297 106.2 139.591 106.2ZM136.071 100.16H143.191C143.137 99.48 142.944 98.88 142.611 98.36C142.277 97.84 141.851 97.4333 141.331 97.14C140.811 96.8467 140.237 96.7 139.611 96.7C138.997 96.7 138.431 96.8467 137.911 97.14C137.391 97.4333 136.964 97.84 136.631 98.36C136.311 98.88 136.124 99.48 136.071 100.16ZM152.09 105.48C151.943 105.547 151.743 105.633 151.49 105.74C151.236 105.847 150.943 105.94 150.61 106.02C150.276 106.1 149.923 106.14 149.55 106.14C149.123 106.14 148.73 106.067 148.37 105.92C148.01 105.76 147.723 105.52 147.51 105.2C147.296 104.867 147.19 104.453 147.19 103.96V96.94H145.77V95.56H147.19V92.08H148.95V95.56H151.29V96.94H148.95V103.42C148.976 103.793 149.103 104.073 149.33 104.26C149.556 104.433 149.823 104.52 150.13 104.52C150.476 104.52 150.796 104.46 151.09 104.34C151.383 104.22 151.576 104.133 151.67 104.08L152.09 105.48ZM153.781 107.62L154.181 105.84H153.581V103.76H155.241V105.84L154.641 107.62H153.781ZM167.618 106.2C166.831 106.2 166.111 106.06 165.458 105.78C164.818 105.487 164.258 105.087 163.778 104.58C163.311 104.073 162.945 103.493 162.678 102.84C162.425 102.187 162.298 101.493 162.298 100.76C162.298 99.7733 162.518 98.8733 162.958 98.06C163.398 97.2467 164.018 96.6 164.818 96.12C165.618 95.6267 166.545 95.38 167.598 95.38C168.625 95.38 169.518 95.6133 170.278 96.08C171.051 96.5333 171.625 97.1467 171.998 97.92L170.278 98.46C170.011 97.9667 169.638 97.5867 169.158 97.32C168.678 97.04 168.145 96.9 167.558 96.9C166.918 96.9 166.331 97.0667 165.798 97.4C165.278 97.7333 164.865 98.1933 164.558 98.78C164.251 99.3533 164.098 100.013 164.098 100.76C164.098 101.493 164.251 102.16 164.558 102.76C164.878 103.347 165.298 103.813 165.818 104.16C166.351 104.507 166.938 104.68 167.578 104.68C167.991 104.68 168.385 104.607 168.758 104.46C169.145 104.313 169.478 104.12 169.758 103.88C170.051 103.627 170.251 103.353 170.358 103.06L172.078 103.58C171.865 104.087 171.538 104.54 171.098 104.94C170.671 105.327 170.158 105.633 169.558 105.86C168.971 106.087 168.325 106.2 167.618 106.2ZM178.535 106.2C177.748 106.2 177.035 106.06 176.395 105.78C175.755 105.487 175.201 105.093 174.735 104.6C174.268 104.093 173.908 103.513 173.655 102.86C173.401 102.207 173.275 101.52 173.275 100.8C173.275 100.067 173.401 99.3733 173.655 98.72C173.908 98.0667 174.268 97.4933 174.735 97C175.201 96.4933 175.755 96.1 176.395 95.82C177.048 95.5267 177.761 95.38 178.535 95.38C179.321 95.38 180.035 95.5267 180.675 95.82C181.315 96.1 181.868 96.4933 182.335 97C182.815 97.4933 183.181 98.0667 183.435 98.72C183.688 99.3733 183.815 100.067 183.815 100.8C183.815 101.52 183.688 102.207 183.435 102.86C183.181 103.513 182.821 104.093 182.355 104.6C181.888 105.093 181.328 105.487 180.675 105.78C180.035 106.06 179.321 106.2 178.535 106.2ZM175.075 100.82C175.075 101.54 175.228 102.193 175.535 102.78C175.855 103.367 176.275 103.833 176.795 104.18C177.315 104.513 177.895 104.68 178.535 104.68C179.175 104.68 179.755 104.507 180.275 104.16C180.808 103.813 181.228 103.347 181.535 102.76C181.855 102.16 182.015 101.5 182.015 100.78C182.015 100.06 181.855 99.4067 181.535 98.82C181.228 98.2333 180.808 97.7667 180.275 97.42C179.755 97.0733 179.175 96.9 178.535 96.9C177.895 96.9 177.315 97.08 176.795 97.44C176.275 97.7867 175.855 98.2533 175.535 98.84C175.228 99.4267 175.075 100.087 175.075 100.82ZM195.007 106H193.247V100.16C193.247 99.0533 193.074 98.2467 192.727 97.74C192.394 97.22 191.881 96.96 191.187 96.96C190.707 96.96 190.227 97.08 189.747 97.32C189.281 97.56 188.861 97.8867 188.487 98.3C188.127 98.7 187.867 99.1667 187.707 99.7V106H185.947V95.56H187.547V97.8C187.827 97.3067 188.187 96.88 188.627 96.52C189.067 96.16 189.567 95.88 190.127 95.68C190.687 95.48 191.274 95.38 191.887 95.38C192.487 95.38 192.987 95.4933 193.387 95.72C193.801 95.9333 194.121 96.24 194.347 96.64C194.587 97.0267 194.754 97.4867 194.847 98.02C194.954 98.5533 195.007 99.1333 195.007 99.76V106ZM201.324 106.2C200.458 106.2 199.644 106.06 198.884 105.78C198.124 105.487 197.471 105.053 196.924 104.48L197.604 103.24C198.204 103.8 198.804 104.2 199.404 104.44C200.004 104.68 200.618 104.8 201.244 104.8C201.964 104.8 202.551 104.667 203.004 104.4C203.458 104.12 203.684 103.713 203.684 103.18C203.684 102.793 203.564 102.507 203.324 102.32C203.098 102.133 202.771 101.98 202.344 101.86C201.918 101.727 201.411 101.58 200.824 101.42C200.104 101.207 199.498 100.98 199.004 100.74C198.511 100.5 198.138 100.2 197.884 99.84C197.631 99.48 197.504 99.0267 197.504 98.48C197.504 97.8133 197.678 97.2533 198.024 96.8C198.371 96.3333 198.844 95.98 199.444 95.74C200.058 95.5 200.751 95.38 201.524 95.38C202.298 95.38 202.998 95.5 203.624 95.74C204.251 95.98 204.791 96.3333 205.244 96.8L204.444 98.02C204.031 97.5933 203.578 97.28 203.084 97.08C202.591 96.8667 202.038 96.76 201.424 96.76C201.064 96.76 200.711 96.8067 200.364 96.9C200.018 96.98 199.731 97.1333 199.504 97.36C199.278 97.5733 199.164 97.88 199.164 98.28C199.164 98.6133 199.251 98.88 199.424 99.08C199.611 99.2667 199.878 99.4267 200.224 99.56C200.584 99.6933 201.018 99.84 201.524 100C202.311 100.227 202.991 100.453 203.564 100.68C204.151 100.907 204.604 101.2 204.924 101.56C205.244 101.92 205.404 102.42 205.404 103.06C205.404 104.047 205.031 104.82 204.284 105.38C203.538 105.927 202.551 106.2 201.324 106.2ZM212.13 106.2C211.343 106.2 210.623 106.06 209.97 105.78C209.33 105.487 208.77 105.093 208.29 104.6C207.823 104.093 207.457 103.513 207.19 102.86C206.937 102.207 206.81 101.513 206.81 100.78C206.81 99.7933 207.037 98.8933 207.49 98.08C207.943 97.2667 208.57 96.6133 209.37 96.12C210.183 95.6267 211.11 95.38 212.15 95.38C213.203 95.38 214.117 95.6333 214.89 96.14C215.677 96.6333 216.283 97.2867 216.71 98.1C217.15 98.9 217.37 99.7667 217.37 100.7C217.37 100.833 217.363 100.967 217.35 101.1C217.35 101.22 217.343 101.313 217.33 101.38H208.67C208.723 102.06 208.91 102.667 209.23 103.2C209.563 103.72 209.99 104.133 210.51 104.44C211.03 104.733 211.59 104.88 212.19 104.88C212.83 104.88 213.43 104.72 213.99 104.4C214.563 104.08 214.957 103.66 215.17 103.14L216.69 103.56C216.463 104.067 216.123 104.52 215.67 104.92C215.23 105.32 214.703 105.633 214.09 105.86C213.49 106.087 212.837 106.2 212.13 106.2ZM208.61 100.16H215.73C215.677 99.48 215.483 98.88 215.15 98.36C214.817 97.84 214.39 97.4333 213.87 97.14C213.35 96.8467 212.777 96.7 212.15 96.7C211.537 96.7 210.97 96.8467 210.45 97.14C209.93 97.4333 209.503 97.84 209.17 98.36C208.85 98.88 208.663 99.48 208.61 100.16ZM223.946 106.2C223.16 106.2 222.44 106.06 221.786 105.78C221.146 105.487 220.586 105.087 220.106 104.58C219.64 104.073 219.273 103.493 219.006 102.84C218.753 102.187 218.626 101.493 218.626 100.76C218.626 99.7733 218.846 98.8733 219.286 98.06C219.726 97.2467 220.346 96.6 221.146 96.12C221.946 95.6267 222.873 95.38 223.926 95.38C224.953 95.38 225.846 95.6133 226.606 96.08C227.38 96.5333 227.953 97.1467 228.326 97.92L226.606 98.46C226.34 97.9667 225.966 97.5867 225.486 97.32C225.006 97.04 224.473 96.9 223.886 96.9C223.246 96.9 222.66 97.0667 222.126 97.4C221.606 97.7333 221.193 98.1933 220.886 98.78C220.58 99.3533 220.426 100.013 220.426 100.76C220.426 101.493 220.58 102.16 220.886 102.76C221.206 103.347 221.626 103.813 222.146 104.16C222.68 104.507 223.266 104.68 223.906 104.68C224.32 104.68 224.713 104.607 225.086 104.46C225.473 104.313 225.806 104.12 226.086 103.88C226.38 103.627 226.58 103.353 226.686 103.06L228.406 103.58C228.193 104.087 227.866 104.54 227.426 104.94C227 105.327 226.486 105.633 225.886 105.86C225.3 106.087 224.653 106.2 223.946 106.2ZM235.8 105.48C235.654 105.547 235.454 105.633 235.2 105.74C234.947 105.847 234.654 105.94 234.32 106.02C233.987 106.1 233.634 106.14 233.26 106.14C232.834 106.14 232.44 106.067 232.08 105.92C231.72 105.76 231.434 105.52 231.22 105.2C231.007 104.867 230.9 104.453 230.9 103.96V96.94H229.48V95.56H230.9V92.08H232.66V95.56H235V96.94H232.66V103.42C232.687 103.793 232.814 104.073 233.04 104.26C233.267 104.433 233.534 104.52 233.84 104.52C234.187 104.52 234.507 104.46 234.8 104.34C235.094 104.22 235.287 104.133 235.38 104.08L235.8 105.48ZM241.915 106.2C241.128 106.2 240.408 106.06 239.755 105.78C239.115 105.487 238.555 105.093 238.075 104.6C237.608 104.093 237.242 103.513 236.975 102.86C236.722 102.207 236.595 101.513 236.595 100.78C236.595 99.7933 236.822 98.8933 237.275 98.08C237.728 97.2667 238.355 96.6133 239.155 96.12C239.968 95.6267 240.895 95.38 241.935 95.38C242.988 95.38 243.902 95.6333 244.675 96.14C245.462 96.6333 246.068 97.2867 246.495 98.1C246.935 98.9 247.155 99.7667 247.155 100.7C247.155 100.833 247.148 100.967 247.135 101.1C247.135 101.22 247.128 101.313 247.115 101.38H238.455C238.508 102.06 238.695 102.667 239.015 103.2C239.348 103.72 239.775 104.133 240.295 104.44C240.815 104.733 241.375 104.88 241.975 104.88C242.615 104.88 243.215 104.72 243.775 104.4C244.348 104.08 244.742 103.66 244.955 103.14L246.475 103.56C246.248 104.067 245.908 104.52 245.455 104.92C245.015 105.32 244.488 105.633 243.875 105.86C243.275 106.087 242.622 106.2 241.915 106.2ZM238.395 100.16H245.515C245.462 99.48 245.268 98.88 244.935 98.36C244.602 97.84 244.175 97.4333 243.655 97.14C243.135 96.8467 242.562 96.7 241.935 96.7C241.322 96.7 240.755 96.8467 240.235 97.14C239.715 97.4333 239.288 97.84 238.955 98.36C238.635 98.88 238.448 99.48 238.395 100.16ZM254.414 105.48C254.267 105.547 254.067 105.633 253.814 105.74C253.56 105.847 253.267 105.94 252.934 106.02C252.6 106.1 252.247 106.14 251.874 106.14C251.447 106.14 251.054 106.067 250.694 105.92C250.334 105.76 250.047 105.52 249.834 105.2C249.62 104.867 249.514 104.453 249.514 103.96V96.94H248.094V95.56H249.514V92.08H251.274V95.56H253.614V96.94H251.274V103.42C251.3 103.793 251.427 104.073 251.654 104.26C251.88 104.433 252.147 104.52 252.454 104.52C252.8 104.52 253.12 104.46 253.414 104.34C253.707 104.22 253.9 104.133 253.994 104.08L254.414 105.48ZM255.945 101.82V95.56H257.705V101.48C257.705 102.547 257.892 103.347 258.265 103.88C258.638 104.413 259.192 104.68 259.925 104.68C260.405 104.68 260.865 104.58 261.305 104.38C261.758 104.167 262.165 103.867 262.525 103.48C262.885 103.093 263.165 102.633 263.365 102.1V95.56H265.125V104C265.125 104.213 265.165 104.373 265.245 104.48C265.338 104.573 265.485 104.627 265.685 104.64V106C265.485 106.027 265.325 106.04 265.205 106.04C265.098 106.053 264.992 106.06 264.885 106.06C264.552 106.06 264.265 105.96 264.025 105.76C263.785 105.547 263.658 105.287 263.645 104.98L263.605 103.76C263.152 104.533 262.538 105.133 261.765 105.56C261.005 105.987 260.172 106.2 259.265 106.2C258.172 106.2 257.345 105.833 256.785 105.1C256.225 104.353 255.945 103.26 255.945 101.82ZM273.577 97.1C272.697 97.1133 271.917 97.34 271.237 97.78C270.57 98.2067 270.097 98.8 269.817 99.56V106H268.057V95.56H269.697V97.98C270.057 97.26 270.53 96.68 271.117 96.24C271.717 95.7867 272.343 95.5333 272.997 95.48C273.13 95.48 273.243 95.48 273.337 95.48C273.43 95.48 273.51 95.4867 273.577 95.5V97.1ZM273.053 106V103.76H274.533V106H273.053Z" fill="black"/>
</svg>
