<svg width="32" height="32" viewBox="0 0 32 32" fill="none" xmlns="http://www.w3.org/2000/svg">
<path d="M21.7406 17.0235C21.7139 17.014 21.6863 17.0069 21.6583 17.0022L21.6513 16.9968L21.5873 16.9533C21.5335 16.9208 21.4776 16.8919 21.42 16.8667C21.2642 16.8001 21.103 16.7466 20.9383 16.7069C19.7683 16.441 18.6765 15.9059 17.7496 15.144C15.6694 13.288 14.3373 10.7372 14.003 7.96954C13.9326 7.57125 13.8827 7.16962 13.8535 6.76623L13.8265 6.4613L13.8129 6.30853L13.806 6.23205L13.8042 6.213C13.8008 6.158 13.7913 6.10355 13.7759 6.05064C13.7396 5.92312 13.6658 5.80942 13.5642 5.72422C13.4626 5.63903 13.3378 5.58625 13.2059 5.57272C13.074 5.55918 12.9411 5.5855 12.8243 5.64828C12.7075 5.71107 12.6123 5.80742 12.5508 5.92491C12.5035 6.01712 12.4761 6.11821 12.4704 6.22166L12.4636 6.29185C12.4003 6.29533 12.4071 6.29552 12.4636 6.29185L12.463 6.2982L12.4484 6.4514L12.4193 6.75822C12.347 7.57769 12.21 8.39015 12.0095 9.188C11.6368 10.7338 10.967 12.1923 10.0374 13.4824C9.21231 14.6055 8.12372 15.5085 6.8675 16.1119L6.2317 16.3622C5.92335 16.4721 5.49726 16.5557 5.2671 16.6547L4.46894 16.9351L4.08082 17.0715C4.01521 17.1063 4.04975 17.1245 4.02949 17.1515L3.98658 17.2974L3.96589 17.368C3.96274 17.3971 3.96138 17.4264 3.9618 17.4556C3.96038 17.474 3.96299 17.4925 3.96943 17.5097L4.04621 17.7683C4.21922 17.9023 4.40089 18.0247 4.59004 18.1347C5.24651 18.2132 5.89072 18.3728 6.50795 18.6097L6.78852 18.7188C6.8669 18.748 6.94278 18.7836 7.01539 18.8252L7.49639 19.0736C8.24819 19.5166 8.92955 20.0695 9.51789 20.714C10.9011 22.3374 11.8374 24.2933 12.2345 26.3887C12.352 26.9686 12.4385 27.5544 12.4937 28.1434L12.5377 28.5841L12.5432 28.639C12.5463 28.6873 12.554 28.7351 12.5663 28.7819C12.5974 28.9015 12.6653 29.0083 12.7604 29.0872C12.8554 29.1662 12.9729 29.2132 13.0962 29.2218C13.2194 29.2304 13.3423 29.2 13.4474 29.135C13.5525 29.07 13.6345 28.9737 13.6819 28.8596C13.7099 28.7918 13.7264 28.7198 13.7308 28.6466L13.7331 28.6191L13.7517 28.3997L13.8262 27.5288C13.9599 26.4373 14.2071 25.3628 14.564 24.3227C15.066 22.8194 15.9026 21.4496 17.0109 20.3167C17.919 19.3984 19.0348 18.7123 20.2641 18.3163C21.0934 18.0424 21.5754 18.0166 21.6593 17.9288C21.7096 17.893 21.6159 17.7438 21.7168 17.7457C21.808 17.7277 21.8885 17.6749 21.9413 17.5984C21.994 17.5219 22.0148 17.4279 21.9993 17.3363C21.9872 17.2527 21.9479 17.1755 21.8876 17.1164C21.8457 17.0754 21.7956 17.0438 21.7406 17.0235Z" fill="white"/>
<path d="M27.8989 8.73254C27.851 8.64746 27.7725 8.58385 27.6793 8.55468C27.5637 8.52892 27.6419 8.53674 27.6132 8.52618L27.5898 8.48943C27.5717 8.46439 27.551 8.44127 27.5282 8.42043C27.4759 8.37327 27.4154 8.3361 27.3498 8.31075C27.153 8.25685 26.96 8.1897 26.7723 8.10975C26.3136 7.88923 25.9149 7.56135 25.61 7.15393C25.5093 7.02235 25.4167 6.8847 25.333 6.74176L25.2041 6.512L25.0471 6.17325C24.9672 5.96381 24.9015 5.74921 24.8504 5.53092C24.7916 5.28861 24.7213 5.10709 24.6712 4.79886C24.6169 4.51426 24.5621 4.22715 24.5067 3.93753C24.4943 3.84031 24.4757 3.84824 24.4587 3.83036L24.4068 3.7847L24.3022 3.69315L24.2009 3.60691L24.1464 3.58291L24.0458 3.54031L23.9993 3.52157L23.9875 3.51724C23.9802 3.51473 23.9435 3.51705 23.9534 3.51779L23.9299 3.52334C23.916 3.5234 23.8354 3.54818 23.7558 3.57125C23.6837 3.61658 23.615 3.66719 23.5504 3.72268C23.5087 3.75055 23.4708 3.78382 23.4379 3.82162L23.3109 4.17462C23.2566 4.82795 23.1168 5.47133 22.895 6.08825C22.7663 6.38134 22.7473 6.41503 22.6893 6.52551L22.5228 6.80963C22.3067 7.15351 22.0309 7.45596 21.7083 7.70269C21.6729 7.73264 21.6351 7.75953 21.5951 7.78308L21.4162 7.90124C21.1822 8.01144 20.9372 8.09648 20.6852 8.1549C20.562 8.18627 20.441 8.22543 20.3227 8.27215L20.0062 8.39551C19.8415 8.48895 19.7213 8.604 19.7538 8.65362L19.6928 8.82202L19.6858 8.89239C19.6828 8.94479 19.6854 8.99736 19.6938 9.04919L19.7481 9.19329L19.7701 9.25012L19.7828 9.28289L19.8674 9.33599C19.9879 9.41058 20.1306 9.49908 20.3022 9.60546C20.5648 9.66394 20.8198 9.75134 21.1386 9.84039C21.2796 9.88049 21.4124 9.94546 21.5305 10.0322L21.6868 10.1325C21.9292 10.3129 22.1484 10.5227 22.3392 10.757C22.4492 10.896 22.55 11.0419 22.6411 11.194C22.7813 11.4174 22.8971 11.6552 22.9866 11.9034C23.2647 12.6103 23.3385 13.9707 23.7219 14.1219C23.745 14.1695 23.7813 14.2094 23.8265 14.237C23.8716 14.2646 23.9237 14.2787 23.9766 14.2776C24.1217 14.2776 24.378 14.348 24.5705 13.4332C24.7411 12.622 24.8035 12.1922 24.9477 11.724C25.0506 11.4778 25.0913 11.4078 25.1319 11.317L25.2776 11.0625C25.4312 10.8069 25.6179 10.5727 25.8329 10.3661C26.3635 9.93292 26.9719 9.60505 27.6255 9.40006C27.6437 9.36966 27.5849 9.2136 27.6698 9.22117C27.7227 9.21349 27.773 9.19279 27.8159 9.16091C27.8589 9.12904 27.8933 9.087 27.916 9.03857C27.9387 8.99013 27.949 8.93681 27.946 8.8834C27.9431 8.82999 27.9269 8.77815 27.8989 8.73254Z" fill="white"/>
</svg>
