<svg width="318" height="112" viewBox="0 0 318 112" fill="none" xmlns="http://www.w3.org/2000/svg">
<rect width="318" height="112" rx="12" fill="white"/>
<circle cx="70" cy="56" r="30" fill="#F2F2F7"/>
<path d="M69.91 56C77.99 56 84.57 54.26 85 52.06V46.31C84.57 48.51 78 50.25 69.91 50.25C65.9687 50.3262 62.0382 49.8104 58.25 48.72V46.72C62.0393 47.8037 65.9697 48.3127 69.91 48.23C78 48.25 84.52 46.51 85 44.33C84.8 40.92 75.52 40 70 40C64.48 40 55 40.93 55 44.43V67.01C55 70.5 64.43 71.44 70 71.44C75.57 71.44 85 70.51 85 67.01V61.81C84.57 64 78 65.72 69.91 65.72C65.9712 65.8124 62.0408 65.3135 58.25 64.24V62.24C62.0408 63.3135 65.9712 63.8124 69.91 63.72C78 63.72 84.57 62 85 59.81V54.06C84.57 56.26 78 58 69.91 58C65.9697 58.0827 62.0393 57.5737 58.25 56.49V54.49C62.0393 55.5737 65.9697 56.0827 69.91 56Z" fill="#457BFF"/>
<path d="M120.76 63.5C120.76 62.9 120.807 62.36 120.9 61.88C120.993 61.4 121.153 60.9533 121.38 60.54C121.62 60.1267 121.94 59.74 122.34 59.38C122.753 59.0067 123.273 58.6467 123.9 58.3C124.447 58.0067 124.927 57.7533 125.34 57.54C125.753 57.3133 126.1 57.1067 126.38 56.92C126.673 56.7333 126.893 56.5467 127.04 56.36C127.187 56.16 127.26 55.9333 127.26 55.68C127.26 55.4133 127.187 55.1733 127.04 54.96C126.893 54.7333 126.687 54.5533 126.42 54.42C126.153 54.2867 125.82 54.22 125.42 54.22C125.1 54.22 124.8 54.26 124.52 54.34C124.253 54.42 124 54.5333 123.76 54.68C123.533 54.8267 123.32 54.9933 123.12 55.18C122.92 55.3533 122.74 55.54 122.58 55.74L120.88 53.78C121.067 53.5933 121.313 53.3933 121.62 53.18C121.94 52.9533 122.313 52.7467 122.74 52.56C123.18 52.36 123.66 52.2 124.18 52.08C124.713 51.9467 125.28 51.88 125.88 51.88C126.787 51.88 127.56 52.0267 128.2 52.32C128.84 52.6 129.327 52.9933 129.66 53.5C130.007 54.0067 130.18 54.6 130.18 55.28C130.18 55.7467 130.093 56.16 129.92 56.52C129.747 56.88 129.527 57.2 129.26 57.48C128.993 57.7467 128.7 57.9867 128.38 58.2C128.073 58.4133 127.773 58.6 127.48 58.76C127.067 58.9733 126.693 59.1733 126.36 59.36C126.027 59.5333 125.733 59.7133 125.48 59.9C125.227 60.0733 125 60.2533 124.8 60.44C124.613 60.6267 124.447 60.84 124.3 61.08H130.4V63.5H120.76ZM142.589 57.64C142.589 58.8133 142.362 59.86 141.909 60.78C141.469 61.6867 140.856 62.4 140.069 62.92C139.296 63.44 138.416 63.7 137.429 63.7C136.442 63.7 135.556 63.44 134.769 62.92C133.996 62.4 133.382 61.6867 132.929 60.78C132.489 59.86 132.269 58.8133 132.269 57.64C132.269 56.4667 132.489 55.4267 132.929 54.52C133.382 53.6 133.996 52.88 134.769 52.36C135.556 51.8267 136.442 51.56 137.429 51.56C138.416 51.56 139.296 51.8267 140.069 52.36C140.856 52.88 141.469 53.6 141.909 54.52C142.362 55.4267 142.589 56.4667 142.589 57.64ZM139.889 57.64C139.889 56.92 139.782 56.2933 139.569 55.76C139.369 55.2133 139.082 54.7867 138.709 54.48C138.336 54.1733 137.909 54.02 137.429 54.02C136.936 54.02 136.502 54.1733 136.129 54.48C135.756 54.7867 135.462 55.2133 135.249 55.76C135.049 56.2933 134.949 56.92 134.949 57.64C134.949 58.36 135.049 58.9867 135.249 59.52C135.462 60.0533 135.756 60.4733 136.129 60.78C136.502 61.0867 136.936 61.24 137.429 61.24C137.909 61.24 138.329 61.0867 138.689 60.78C139.062 60.4733 139.356 60.0533 139.569 59.52C139.782 58.9733 139.889 58.3467 139.889 57.64ZM154.874 57.64C154.874 58.8133 154.648 59.86 154.194 60.78C153.754 61.6867 153.141 62.4 152.354 62.92C151.581 63.44 150.701 63.7 149.714 63.7C148.728 63.7 147.841 63.44 147.054 62.92C146.281 62.4 145.668 61.6867 145.214 60.78C144.774 59.86 144.554 58.8133 144.554 57.64C144.554 56.4667 144.774 55.4267 145.214 54.52C145.668 53.6 146.281 52.88 147.054 52.36C147.841 51.8267 148.728 51.56 149.714 51.56C150.701 51.56 151.581 51.8267 152.354 52.36C153.141 52.88 153.754 53.6 154.194 54.52C154.648 55.4267 154.874 56.4667 154.874 57.64ZM152.174 57.64C152.174 56.92 152.068 56.2933 151.854 55.76C151.654 55.2133 151.368 54.7867 150.994 54.48C150.621 54.1733 150.194 54.02 149.714 54.02C149.221 54.02 148.788 54.1733 148.414 54.48C148.041 54.7867 147.748 55.2133 147.534 55.76C147.334 56.2933 147.234 56.92 147.234 57.64C147.234 58.36 147.334 58.9867 147.534 59.52C147.748 60.0533 148.041 60.4733 148.414 60.78C148.788 61.0867 149.221 61.24 149.714 61.24C150.194 61.24 150.614 61.0867 150.974 60.78C151.348 60.4733 151.641 60.0533 151.854 59.52C152.068 58.9733 152.174 58.3467 152.174 57.64ZM168.044 63.6C167.124 63.6 166.251 63.4133 165.424 63.04C164.611 62.6667 163.891 62.1533 163.264 61.5C162.651 60.8333 162.171 60.06 161.824 59.18C161.477 58.3 161.304 57.3467 161.304 56.32C161.304 55.3467 161.477 54.4333 161.824 53.58C162.171 52.7133 162.657 51.9533 163.284 51.3C163.911 50.6467 164.644 50.1333 165.484 49.76C166.324 49.3867 167.237 49.2 168.224 49.2C169.557 49.2 170.697 49.4867 171.644 50.06C172.604 50.62 173.324 51.3667 173.804 52.3L171.744 53.82C171.384 53.1133 170.877 52.5733 170.224 52.2C169.584 51.8267 168.884 51.64 168.124 51.64C167.524 51.64 166.977 51.7667 166.484 52.02C165.991 52.2733 165.564 52.62 165.204 53.06C164.844 53.5 164.564 54.0067 164.364 54.58C164.177 55.1533 164.084 55.76 164.084 56.4C164.084 57.08 164.184 57.7067 164.384 58.28C164.597 58.8533 164.891 59.3533 165.264 59.78C165.651 60.2067 166.097 60.5467 166.604 60.8C167.111 61.04 167.671 61.16 168.284 61.16C169.004 61.16 169.691 60.9733 170.344 60.6C171.011 60.2267 171.631 59.68 172.204 58.96V61.68C171.017 62.96 169.631 63.6 168.044 63.6ZM172.004 58.22H169.144V56.2H174.284V63.5H172.004V58.22ZM188.076 59.84C188.076 60.64 187.87 61.3133 187.456 61.86C187.043 62.3933 186.483 62.8 185.776 63.08C185.083 63.36 184.323 63.5 183.496 63.5H176.636V49.3H184.236C184.903 49.3 185.476 49.48 185.956 49.84C186.45 50.1867 186.823 50.64 187.076 51.2C187.343 51.7467 187.476 52.32 187.476 52.92C187.476 53.6 187.303 54.2467 186.956 54.86C186.61 55.4733 186.103 55.9267 185.436 56.22C186.25 56.46 186.89 56.8933 187.356 57.52C187.836 58.1467 188.076 58.92 188.076 59.84ZM185.296 59.32C185.296 58.96 185.223 58.64 185.076 58.36C184.93 58.0667 184.73 57.84 184.476 57.68C184.236 57.5067 183.956 57.42 183.636 57.42H179.396V61.16H183.496C183.83 61.16 184.13 61.08 184.396 60.92C184.676 60.7467 184.896 60.52 185.056 60.24C185.216 59.96 185.296 59.6533 185.296 59.32ZM179.396 51.66V55.24H183.076C183.383 55.24 183.663 55.1667 183.916 55.02C184.17 54.8733 184.37 54.6667 184.516 54.4C184.676 54.1333 184.756 53.8133 184.756 53.44C184.756 53.08 184.683 52.7667 184.536 52.5C184.403 52.2333 184.216 52.0267 183.976 51.88C183.75 51.7333 183.49 51.66 183.196 51.66H179.396ZM196.23 55.32V57.48H194.17V59.74H191.75V57.48H189.69V55.32H191.75V53.06H194.17V55.32H196.23ZM211.913 53.02C211.819 52.9267 211.646 52.8 211.393 52.64C211.153 52.48 210.853 52.3267 210.493 52.18C210.146 52.0333 209.766 51.9067 209.353 51.8C208.939 51.68 208.519 51.62 208.093 51.62C207.346 51.62 206.779 51.76 206.393 52.04C206.019 52.32 205.833 52.7133 205.833 53.22C205.833 53.6067 205.953 53.9133 206.193 54.14C206.433 54.3667 206.793 54.56 207.273 54.72C207.753 54.88 208.353 55.0533 209.073 55.24C210.006 55.4667 210.813 55.7467 211.493 56.08C212.186 56.4 212.713 56.8267 213.073 57.36C213.446 57.88 213.633 58.5733 213.633 59.44C213.633 60.2 213.493 60.8533 213.213 61.4C212.933 61.9333 212.546 62.3667 212.053 62.7C211.559 63.0333 210.999 63.28 210.373 63.44C209.746 63.5867 209.079 63.66 208.373 63.66C207.666 63.66 206.959 63.5867 206.253 63.44C205.546 63.2933 204.866 63.0867 204.213 62.82C203.559 62.54 202.959 62.2067 202.413 61.82L203.633 59.44C203.753 59.56 203.966 59.72 204.273 59.92C204.579 60.1067 204.953 60.3 205.393 60.5C205.833 60.6867 206.313 60.8467 206.833 60.98C207.353 61.1133 207.879 61.18 208.413 61.18C209.159 61.18 209.726 61.0533 210.113 60.8C210.499 60.5467 210.693 60.1867 210.693 59.72C210.693 59.2933 210.539 58.96 210.233 58.72C209.926 58.48 209.499 58.2733 208.953 58.1C208.406 57.9133 207.759 57.7133 207.013 57.5C206.119 57.2467 205.373 56.9667 204.773 56.66C204.173 56.34 203.726 55.94 203.433 55.46C203.139 54.98 202.993 54.38 202.993 53.66C202.993 52.6867 203.219 51.8733 203.673 51.22C204.139 50.5533 204.766 50.0533 205.553 49.72C206.339 49.3733 207.213 49.2 208.173 49.2C208.839 49.2 209.466 49.2733 210.053 49.42C210.653 49.5667 211.213 49.76 211.733 50C212.253 50.24 212.719 50.5 213.133 50.78L211.913 53.02ZM221.504 62.96C221.277 63.0533 221.004 63.16 220.684 63.28C220.364 63.4 220.017 63.4933 219.644 63.56C219.284 63.64 218.917 63.68 218.544 63.68C218.051 63.68 217.597 63.5933 217.184 63.42C216.771 63.2467 216.437 62.9733 216.184 62.6C215.944 62.2133 215.824 61.7133 215.824 61.1V55.08H214.444V53.02H215.824V49.62H218.504V53.02H220.704V55.08H218.504V60.2C218.517 60.56 218.617 60.82 218.804 60.98C218.991 61.14 219.224 61.22 219.504 61.22C219.784 61.22 220.057 61.1733 220.324 61.08C220.591 60.9867 220.804 60.9067 220.964 60.84L221.504 62.96ZM227.623 63.7C226.769 63.7 226.003 63.56 225.323 63.28C224.643 62.9867 224.063 62.5867 223.583 62.08C223.116 61.5733 222.756 60.9933 222.503 60.34C222.249 59.6867 222.123 59 222.123 58.28C222.123 57.5467 222.249 56.8533 222.503 56.2C222.756 55.5467 223.116 54.9667 223.583 54.46C224.063 53.9533 224.643 53.56 225.323 53.28C226.003 52.9867 226.769 52.84 227.623 52.84C228.476 52.84 229.236 52.9867 229.903 53.28C230.583 53.56 231.163 53.9533 231.643 54.46C232.123 54.9667 232.483 55.5467 232.723 56.2C232.976 56.8533 233.103 57.5467 233.103 58.28C233.103 59 232.976 59.6867 232.723 60.34C232.483 60.9933 232.123 61.5733 231.643 62.08C231.176 62.5867 230.603 62.9867 229.923 63.28C229.243 63.56 228.476 63.7 227.623 63.7ZM224.883 58.28C224.883 58.8933 225.003 59.44 225.243 59.92C225.483 60.3867 225.809 60.7533 226.223 61.02C226.636 61.2867 227.103 61.42 227.623 61.42C228.129 61.42 228.589 61.2867 229.003 61.02C229.416 60.74 229.743 60.3667 229.983 59.9C230.236 59.42 230.363 58.8733 230.363 58.26C230.363 57.66 230.236 57.12 229.983 56.64C229.743 56.16 229.416 55.7867 229.003 55.52C228.589 55.2533 228.129 55.12 227.623 55.12C227.103 55.12 226.636 55.26 226.223 55.54C225.809 55.8067 225.483 56.18 225.243 56.66C225.003 57.1267 224.883 57.6667 224.883 58.28ZM241.151 55.34C240.338 55.34 239.611 55.5 238.971 55.82C238.331 56.1267 237.871 56.5733 237.591 57.16V63.5H234.911V53.02H237.371V55.26C237.745 54.54 238.218 53.9733 238.791 53.56C239.365 53.1467 239.971 52.92 240.611 52.88C240.758 52.88 240.871 52.88 240.951 52.88C241.031 52.88 241.098 52.8867 241.151 52.9V55.34ZM241.867 60.4C241.867 59.72 242.054 59.1267 242.427 58.62C242.814 58.1 243.347 57.7 244.027 57.42C244.707 57.14 245.487 57 246.367 57C246.807 57 247.254 57.0333 247.707 57.1C248.161 57.1667 248.554 57.2733 248.887 57.42V56.86C248.887 56.1933 248.687 55.68 248.287 55.32C247.901 54.96 247.321 54.78 246.547 54.78C245.974 54.78 245.427 54.88 244.907 55.08C244.387 55.28 243.841 55.5733 243.267 55.96L242.407 54.2C243.101 53.7467 243.807 53.4067 244.527 53.18C245.261 52.9533 246.027 52.84 246.827 52.84C248.321 52.84 249.481 53.2133 250.307 53.96C251.147 54.7067 251.567 55.7733 251.567 57.16V60.5C251.567 60.78 251.614 60.98 251.707 61.1C251.814 61.22 251.981 61.2933 252.207 61.32V63.5C251.967 63.54 251.747 63.5733 251.547 63.6C251.361 63.6267 251.201 63.64 251.067 63.64C250.534 63.64 250.127 63.52 249.847 63.28C249.581 63.04 249.414 62.7467 249.347 62.4L249.287 61.86C248.834 62.4467 248.267 62.9 247.587 63.22C246.907 63.54 246.214 63.7 245.507 63.7C244.814 63.7 244.187 63.56 243.627 63.28C243.081 62.9867 242.647 62.5933 242.327 62.1C242.021 61.5933 241.867 61.0267 241.867 60.4ZM248.387 60.94C248.534 60.78 248.654 60.62 248.747 60.46C248.841 60.3 248.887 60.1533 248.887 60.02V58.96C248.567 58.8267 248.221 58.7267 247.847 58.66C247.474 58.58 247.121 58.54 246.787 58.54C246.094 58.54 245.521 58.6933 245.067 59C244.627 59.2933 244.407 59.6867 244.407 60.18C244.407 60.4467 244.481 60.7 244.627 60.94C244.774 61.18 244.987 61.3733 245.267 61.52C245.547 61.6667 245.881 61.74 246.267 61.74C246.667 61.74 247.061 61.6667 247.447 61.52C247.834 61.36 248.147 61.1667 248.387 60.94ZM258.172 63.56C257.478 63.56 256.838 63.4267 256.252 63.16C255.678 62.88 255.178 62.4933 254.752 62C254.338 61.5067 254.018 60.94 253.792 60.3C253.565 59.66 253.452 58.98 253.452 58.26C253.452 57.5 253.572 56.7933 253.812 56.14C254.052 55.4867 254.385 54.9133 254.812 54.42C255.252 53.9133 255.765 53.5267 256.352 53.26C256.952 52.98 257.612 52.84 258.332 52.84C259.145 52.84 259.858 53.0267 260.472 53.4C261.085 53.76 261.592 54.2467 261.992 54.86V53.02H264.332V63C264.332 64.04 264.078 64.9267 263.572 65.66C263.078 66.4067 262.392 66.9733 261.512 67.36C260.632 67.76 259.632 67.96 258.512 67.96C257.378 67.96 256.418 67.7667 255.632 67.38C254.845 67.0067 254.172 66.4733 253.612 65.78L255.072 64.36C255.472 64.8533 255.972 65.24 256.572 65.52C257.185 65.8 257.832 65.94 258.512 65.94C259.085 65.94 259.605 65.8333 260.072 65.62C260.552 65.42 260.932 65.1 261.212 64.66C261.505 64.2333 261.652 63.68 261.652 63V61.68C261.305 62.28 260.812 62.7467 260.172 63.08C259.545 63.4 258.878 63.56 258.172 63.56ZM259.072 61.42C259.365 61.42 259.645 61.3733 259.912 61.28C260.178 61.1867 260.425 61.06 260.652 60.9C260.878 60.74 261.078 60.5533 261.252 60.34C261.425 60.1133 261.558 59.8867 261.652 59.66V57.16C261.492 56.7467 261.265 56.3867 260.972 56.08C260.692 55.7733 260.372 55.54 260.012 55.38C259.665 55.2067 259.298 55.12 258.912 55.12C258.498 55.12 258.125 55.2067 257.792 55.38C257.458 55.5533 257.172 55.8 256.932 56.12C256.692 56.4267 256.505 56.7733 256.372 57.16C256.252 57.5333 256.192 57.9267 256.192 58.34C256.192 58.7667 256.265 59.1667 256.412 59.54C256.558 59.9133 256.758 60.24 257.012 60.52C257.278 60.8 257.585 61.02 257.932 61.18C258.292 61.34 258.672 61.42 259.072 61.42ZM271.607 63.7C270.767 63.7 270.007 63.56 269.327 63.28C268.647 62.9867 268.067 62.5933 267.587 62.1C267.107 61.5933 266.734 61.02 266.467 60.38C266.214 59.7267 266.087 59.04 266.087 58.32C266.087 57.32 266.307 56.4067 266.747 55.58C267.201 54.7533 267.841 54.0933 268.667 53.6C269.507 53.0933 270.494 52.84 271.627 52.84C272.774 52.84 273.754 53.0933 274.567 53.6C275.381 54.0933 276.001 54.7533 276.427 55.58C276.867 56.3933 277.087 57.2733 277.087 58.22C277.087 58.38 277.081 58.5467 277.067 58.72C277.054 58.88 277.041 59.0133 277.027 59.12H268.927C268.981 59.6533 269.134 60.12 269.387 60.52C269.654 60.92 269.987 61.2267 270.387 61.44C270.801 61.64 271.241 61.74 271.707 61.74C272.241 61.74 272.741 61.6133 273.207 61.36C273.687 61.0933 274.014 60.7467 274.187 60.32L276.487 60.96C276.234 61.4933 275.867 61.9667 275.387 62.38C274.921 62.7933 274.367 63.12 273.727 63.36C273.087 63.5867 272.381 63.7 271.607 63.7ZM268.867 57.42H274.347C274.294 56.8867 274.141 56.4267 273.887 56.04C273.647 55.64 273.327 55.3333 272.927 55.12C272.527 54.8933 272.081 54.78 271.587 54.78C271.107 54.78 270.667 54.8933 270.267 55.12C269.881 55.3333 269.561 55.64 269.307 56.04C269.067 56.4267 268.921 56.8867 268.867 57.42Z" fill="black"/>
</svg>
