<svg width="179" height="60" viewBox="0 0 179 60" fill="none" xmlns="http://www.w3.org/2000/svg">
<path d="M18.4527 50.1301C18.4527 51.9549 17.9116 53.7388 16.8978 55.256C15.884 56.7733 14.443 57.9558 12.7571 58.6542C11.0712 59.3525 9.21611 59.5352 7.42637 59.1792C5.63664 58.8232 3.99266 57.9445 2.70234 56.6541C1.41201 55.3638 0.533286 53.7199 0.177286 51.9301C-0.178715 50.1404 0.00399762 48.2853 0.702317 46.5994C1.40064 44.9135 2.5832 43.4725 4.10046 42.4587C5.61773 41.4449 7.40154 40.9038 9.22634 40.9038C11.6733 40.9038 14.0201 41.8759 15.7503 43.6061C17.4806 45.3364 18.4527 47.6832 18.4527 50.1301Z" fill="#0DB04B"/>
<path d="M87.8677 39.6781L96.3866 32.5324L98.3802 20.4954L91.8586 12.3169H70.6368L60.8015 20.6164L55.8838 50.2587L62.3411 58.8382H86.0481L93.436 50.2625L94.5973 43.1243H82.4923L82.148 45.4394L80.0788 46.9525L69.4339 46.9336L68.1023 45.4205L69.0216 39.6252L87.8677 39.6781ZM72.551 23.412L74.3062 21.8988H84.9965L86.2713 23.412L85.2348 28.5755L83.96 29.7104H71.3518L72.551 23.412Z" fill="#262626"/>
<path d="M135.554 43.1281L122.976 43.1546L122.511 46.022L120.442 47.5389H109.956L108.639 46.0447L112.036 24.944L114.102 23.4271H124.792L125.757 24.944L125.496 27.713L138.214 27.7357L139.413 20.4878L133.746 12.3169H110.924L101.588 20.4765L96.6553 50.2587L103.305 58.8382H127.039L134.51 50.2587L135.758 43.1281H135.554Z" fill="#262626"/>
<path d="M41.8497 45.4886L40.102 47.0055H35.3924L34.1138 45.4886L34.9309 40.1472L37.7869 23.4006H49.1808L50.9588 12.3661H40.3971L42.523 0H30.1569L28.031 12.3661H22.213L20.4351 23.4006H26.4687L22.0276 50.2134L28.2428 58.5734H30.8719H45.9087H45.6628L52.5702 50.2588L53.7543 43.1735H42.1939L41.8497 45.4886Z" fill="#262626"/>
<path d="M172.808 12.3131H159.496L156.799 14.511L155.062 15.7858L155.951 10.2099L157.608 0H146.01L136.269 58.8382H148.11L153.114 27.7358L157.113 24.9592H164.856L166.562 28.2427L161.626 58.8382H172.861L179 20.4878L172.808 12.3131Z" fill="#262626"/>
</svg>
